<svg id="Layer_1" data-name="Layer 1" xmlns="http://www.w3.org/2000/svg" viewBox="0 0 370.76 330.6"><defs><style>.cls-1{font-size:32px;font-family:TondoCorp-Regular, Tondo Corp;letter-spacing:0.02em;}.cls-1,.cls-2{fill:#eb2227;}.cls-3{fill:#ec2227;}</style></defs><title>Airtel_Enterprise_Logo</title><text class="cls-1" transform="translate(53.6 322.12)">BUSINESS CARE</text><path class="cls-2" d="M136.23,146.56a9,9,0,0,0-9,9,8.89,8.89,0,1,0,15.34-6.33,8.61,8.61,0,0,0-6.33-2.71"/><polygon class="cls-2" points="129.09 225.77 143.08 225.77 143.08 169.17 129.09 171.5 129.09 225.77"/><path class="cls-2" d="M98.63,168.16c-6.68,0-12.68,1.93-18.85,5.05l-1.57.81L82,182.54l2.12-1c4.37-2,9-3.32,13.21-3.15,5.06.21,7.14,2.58,7.14,7.51v2.89H96.14c-13.32,0-21.61,7.17-21.84,18.31,0,10.59,8.68,19.7,20.76,19.7,9.75,0,18-3.21,23.56-8.88v-30.2c0-14.7-10.33-19.55-20-19.55m5.78,46.92a13.64,13.64,0,0,1-7.26,1.83c-5.62,0-8.15-4.38-8.06-9.48.1-4.24,2.7-9,9.71-9h5.61Z"/><path class="cls-2" d="M246,216.81c-3.82,0-6.42-1.26-8.12-3.12-2.51-2.78-3.63-8.45-3.33-14.48h30.15v-1.42c-.27-20-7-29.18-21.72-29.18-16.44,0-22.85,15.36-23,29.81-.1,9.12,3.29,18.32,9.49,23.56,3.78,3.18,9,5,15.08,5a33.26,33.26,0,0,0,9.91-1.5A39.29,39.29,0,0,0,265,220.25L261.05,212a26.88,26.88,0,0,1-15.06,4.8m-3-37.62c6.21,0,7.13,6.84,7.13,11.11H235c.23-5.48,2.48-11.11,8-11.11"/><path class="cls-2" d="M154.27,179.32l0,46.49h14.27V182c1.86-1.84,5.81-3.45,9.56-3.61a17.82,17.82,0,0,1,5.73.6l3.94-9a24.12,24.12,0,0,0-9.42-1.72c-6.14,0-15.57,1.83-24.06,11"/><path class="cls-2" d="M294.33,216.86c-5.82-.46-7-3-7-7.38v-56l-14,2.43v52.63c0,12.48,6.67,17.82,17.82,17.82a33.81,33.81,0,0,0,5.35-.57v-8.93s-1.31,0-2.12,0"/><path class="cls-2" d="M205.85,153.58l-14.33,2.34v52.89c0,11.85,6.81,17.45,18.24,17.45a30.38,30.38,0,0,0,5.31-.52v-8.81c-.15,0-1.21,0-2-.05-6-.21-7.21-3.57-7.21-7.47V179.64h9.22V169.2h-9.22Z"/><path class="cls-2" d="M175.47,114.55c7.31-2.69,13.1-6.41,18.69-10l1.51-1a139.76,139.76,0,0,0,17.65-13.49c13.14-11.69,21.05-23.15,25.57-37.16,1.83-5.67,4.42-16.74,1.24-27.13A35,35,0,0,0,226.74,7.3C226,6.67,217.8,0,202.35,0c-14.1,0-29.58,5.53-46,16.47l-.52.34-.08.05-1.47.95a13.07,13.07,0,0,1-1.26.85,98.88,98.88,0,0,0-9.54,7.48C136.57,33,128.65,44.34,129.15,54a13,13,0,0,0,5,9.93,16.22,16.22,0,0,0,10.41,3.38c8.41,0,17.63-4.66,23.92-8.6.4-.27.8-.55,1.2-.81,1.1-.73,2.19-1.48,3.29-2.23l1.08-.73c9-6.11,18.22-12.42,28.66-16.1A21.91,21.91,0,0,1,210,37.46a13.49,13.49,0,0,1,3.14.35,9.77,9.77,0,0,1,6.9,5.46c2.41,5,1.83,12.93-1.46,20.16C214,73.29,206.32,83,195.6,92.32a90.59,90.59,0,0,1-15,10.88l-.4.22a54.85,54.85,0,0,1-6.95,3.44l-.34.14c-.75.28-1.37.52-1.95.72-10.48,2.86-4.1-6.52-4.1-6.52A79.84,79.84,0,0,1,174,93.81c1.41-1.33,2.88-2.73,4.35-4.24l.32-.33c1.83-1.86,4.34-4.41,4.2-8.07-.22-4.85-5.06-7.88-9.61-8h-.34c-4.37,0-8.53,2.61-11.24,4.81a37.41,37.41,0,0,0-7.52,8.62c-2.79,4.51-8.66,16-2.94,25.14,2.28,3.66,6.1,5.51,11.35,5.51a38.43,38.43,0,0,0,12.88-2.69"/><path class="cls-3" d="M0,283.66a515,515,0,0,1,91.28-23.19c15.53-2.58,31.2-4.34,46.89-5.66s31.46-1.8,47.21-1.87,31.51.65,47.21,1.88,31.36,3.07,46.89,5.66a515.07,515.07,0,0,1,91.28,23.23,762.36,762.36,0,0,0-92.07-17.82c-15.48-1.93-31-3.54-46.57-4.46s-31.15-1.55-46.74-1.5-31.18.48-46.74,1.48-31.09,2.52-46.57,4.44A760,760,0,0,0,0,283.66Z"/></svg>