<svg xmlns="http://www.w3.org/2000/svg" width="32" height="26.813" viewBox="0 0 32 26.813">
  <g id="Group_22437" data-name="Group 22437" transform="translate(-768.047 -379.178)">
    <path id="Subtraction_48" data-name="Subtraction 48" d="M16,26.813c-.625,0-1.308,0-2.03,0a2.054,2.054,0,0,1-1.446-.592,2.088,2.088,0,0,1-.613-1.448c0-.027,0-.055,0-.087v-.069h0c0-.411,0-.427-.473-.427H3.588a4.259,4.259,0,0,1-1.233-.17,3.365,3.365,0,0,1-1.1-.568,2.785,2.785,0,0,1-1.22-2.182.549.549,0,0,1,0-.107h0v-.022h0A.386.386,0,0,0,0,20.906v-15A.389.389,0,0,0,.033,5.68h0v0h0V5.66h0a.574.574,0,0,1,0-.112A2.834,2.834,0,0,1,.17,4.793a2.614,2.614,0,0,1,.316-.641,3.074,3.074,0,0,1,.471-.542,4.313,4.313,0,0,1,.6-.456,3.22,3.22,0,0,1,.99-.412A4.6,4.6,0,0,1,3.62,2.627H11.4c.5,0,.5,0,.51-.487a2.378,2.378,0,0,1,.166-.866A1.965,1.965,0,0,1,13.2.159,2.375,2.375,0,0,1,14.062,0h.656l1.415,0,1.512,0h.321a2.264,2.264,0,0,1,.844.158,2,2,0,0,1,1.114,1.1,2.3,2.3,0,0,1,.169.842v.059c0,.032,0,.065,0,.1,0,.178.012.266.065.314s.152.053.349.053H24.29c1.115,0,1.936,0,2.745,0l.435,0h.436a10.2,10.2,0,0,1,1.281.065,3.048,3.048,0,0,1,.971.3,3.611,3.611,0,0,1,.851.594,3.366,3.366,0,0,1,.632.8,2.522,2.522,0,0,1,.316.911,1.184,1.184,0,0,1,.008.167h0c0,.006,0,.012,0,.018v.009c0,.013,0,.026,0,.038s0,.011,0,.016a.658.658,0,0,1,0,.127v0h0a.387.387,0,0,0,.032.23v15a.373.373,0,0,0-.032.226v0h0v0a.653.653,0,0,1,0,.125,2.811,2.811,0,0,1-.143.771,2.584,2.584,0,0,1-.33.649,3.657,3.657,0,0,1-1.113,1,3.147,3.147,0,0,1-.967.39,4.611,4.611,0,0,1-1.036.106c-1.223,0-2.413,0-3.462,0H20.7l-.089,0h-.089c-.042,0-.074,0-.1,0l-.051,0a.265.265,0,0,0-.207.072.34.34,0,0,0-.065.266,2.257,2.257,0,0,1,0,.231v.033s0,.006,0,.008,0,.006,0,.008a2.09,2.09,0,0,1-.625,1.424,2.059,2.059,0,0,1-1.437.583C17.308,26.812,16.625,26.813,16,26.813ZM15.96,1.407H14.132a.822.822,0,0,0-.605.194.827.827,0,0,0-.2.606c0,.387,0,.78,0,1.161v.049c0,.165,0,.336,0,.507v9.466c0,3.655,0,7.434,0,11.152,0,.629.235.862.868.862h3.561a.749.749,0,0,0,.914-.911c0-1.642,0-3.359,0-4.873V11.634c0-3.068,0-6.24,0-9.349a.916.916,0,0,0-.2-.683.929.929,0,0,0-.687-.195H15.96Zm9.047,21.318c1.3,0,2.443.007,3.485.02h.032a2.153,2.153,0,0,0,1.543-.615,2.033,2.033,0,0,0,.449-.687,2.351,2.351,0,0,0,.162-.885c-.018-4.745-.018-9.558,0-14.3a2.365,2.365,0,0,0-.161-.886,2.036,2.036,0,0,0-.449-.687,2.151,2.151,0,0,0-1.542-.614h-.033c-1.022.014-2.154.021-3.462.021-1.124,0-2.284-.005-3.308-.01h-.232l-.38,0h-.24l-.562,0H20.3a.344.344,0,0,0-.249.063.37.37,0,0,0-.062.261C20,6.839,20,9.33,20,11.527V11.6c0,.607,0,1.225,0,1.822,0,.577,0,1.173,0,1.759v.12c0,2.328,0,4.735-.007,7.115,0,.167.024.225.061.262a.341.341,0,0,0,.249.063h.005l.462,0h.248l.374,0C22.487,22.73,23.772,22.725,25.008,22.725ZM3.474,4.067a2.151,2.151,0,0,0-1.542.617,2.038,2.038,0,0,0-.45.686,2.346,2.346,0,0,0-.161.884c.019,4.745.019,9.558,0,14.3a2.354,2.354,0,0,0,.162.885,2.04,2.04,0,0,0,.449.686,2.151,2.151,0,0,0,1.541.617h.034c1.023-.014,2.156-.02,3.463-.02,1.147,0,2.312,0,3.313.01h.231l.324,0h.248l.29,0h.32a.341.341,0,0,0,.249-.063.365.365,0,0,0,.062-.26C12,20.062,12,17.687,12,15.39V11.332c0-2.267,0-4.611.007-6.936,0-.165-.024-.224-.061-.262a.339.339,0,0,0-.246-.062h-.151l-.954,0h-.278c-1.034,0-2.207.01-3.334.01-1.3,0-2.433-.007-3.473-.021Z" transform="translate(768.047 379.178)" fill="#eb0e15"/>
    <path id="Path_78816" data-name="Path 78816" d="M768.047,446.039l.022-.023.03.009a.366.366,0,0,1-.052.326Z" transform="translate(0 -61.267)" fill="#eb0e15"/>
    <path id="Path_78817" data-name="Path 78817" d="M1151.144,446.041a.032.032,0,0,1,.052.013v.312A.366.366,0,0,1,1151.144,446.041Z" transform="translate(-351.149 -61.282)" fill="#eb0e15"/>
    <path id="Path_78818" data-name="Path 78818" d="M768.1,630.294l-.03.009-.022-.023v-.312A.366.366,0,0,1,768.1,630.294Z" transform="translate(0 -229.885)" fill="#eb0e15"/>
    <path id="Path_78819" data-name="Path 78819" d="M1151.2,630.28l-.023.02-.029-.007a.366.366,0,0,1,.052-.326Z" transform="translate(-351.149 -229.885)" fill="#eb0e15"/>
    <path id="Path_78823" data-name="Path 78823" d="M818.066,459.949c.406,0,.811,0,1.217,0a.675.675,0,1,1,.015,1.34q-1.248.011-2.5,0a.677.677,0,0,1-.75-.662c-.005-.4.293-.671.766-.678C817.234,459.945,817.65,459.949,818.066,459.949Z" transform="translate(-44.004 -74.037)" fill="#eb0e15"/>
    <path id="Path_78824" data-name="Path 78824" d="M1057.994,603.888c.406,0,.811,0,1.217,0a.675.675,0,1,1,.01,1.341q-1.248.01-2.5,0a.673.673,0,1,1-.01-1.34C1057.141,603.881,1057.568,603.888,1057.994,603.888Z" transform="translate(-263.929 -205.976)" fill="#eb0e15"/>
  </g>
</svg>
