<svg xmlns="http://www.w3.org/2000/svg" width="32" height="32.575" viewBox="0 0 32 32.575">
  <g id="Group_22431" data-name="Group 22431" transform="translate(-671.467 -247.068)">
    <path id="Subtraction_35" data-name="Subtraction 35" d="M31.116,32.575h-1.9l-.537,0H16.8c-1.21,0-2.46,0-3.694,0H.923c-.015,0-.018,0-.022,0H.874a.014.014,0,0,0-.008,0H.855c-.19-.054-.283-.2-.283-.45v-.4l0-.02V31.64a6.359,6.359,0,0,1,.038-.948,1.23,1.23,0,0,1,.636-.964.341.341,0,0,0,.2-.348c-.012-.4-.012-.84-.012-1.1v-.038a.135.135,0,0,0,0-.034v-.125l0-.033v-.292a1.206,1.206,0,0,1,1-1.312c.182-.046.182-.149.182-.25v-.019l0,0V20.117c0-1.586,0-3.225.012-4.831,0-.2-.026-.307-.272-.359a1.2,1.2,0,0,1-.919-1.2c-.007-.275-.007-.555,0-.9v-.473c0-.064,0-.125,0-.189v-.219a.248.248,0,0,0-.132-.261,1.208,1.208,0,0,1-.582-.571,1.763,1.763,0,0,1-.159-.8.27.27,0,0,1,.006-.068v-1.1a.025.025,0,0,0,.007-.019V9.115a.115.115,0,0,0-.02-.083A.142.142,0,0,0,.465,9,.419.419,0,0,1,0,8.609c-.03-.266.155-.4.359-.508l.068-.037.033-.019.178-.091C.74,7.9.859,7.842,1,7.773l.095-.053L1.324,7.6c.43-.223.994-.52,1.728-.908h0l0,0,0,0,.011,0h.008l0,0,0,0h.008s0,0,0,0h0v0s.006,0,.006,0h0s0,0,0,0l0,0h0s0,0,0,0l0,0a.006.006,0,0,1,0,0l.006,0,0,0a.013.013,0,0,1,.008,0l.008,0h.007v0h0s0,0,.007,0l0,0,0,0H3.2a.322.322,0,0,1,.03-.019l.086-.046,0,0,.008,0,.015,0,.054-.031.011,0L3.426,6.5l.011-.007L3.46,6.48l.026-.015c.066-.033.124-.066.174-.1h0l0,0a.038.038,0,0,0,.019-.008h0l0,0h0l0,0,.011,0h0s0,0,0,0l.022-.011,0,0h0s0,0,0,0l.007,0,.015-.007v0h0s.007,0,.01,0l.007,0,0,0a.014.014,0,0,0,.013-.006l.007,0,0,0,.009,0,.022-.011a.174.174,0,0,1,.026-.012l.008,0,0,0a.065.065,0,0,0,.016-.012l.008,0a.583.583,0,0,0,.1-.047l.017-.01.009-.008.007,0,.026-.012a.143.143,0,0,0,.024-.013l.006,0,.02-.011.02-.008,0,0,.067-.034.031-.019.037-.02h0c.021-.013.043-.024.075-.04L4.379,6v0l.111-.058.031-.019h.011l0,0h0s0,0,0,0h0s.008,0,.008-.007a.1.1,0,0,0,.034-.016l.007,0,.016-.007h.008l0,0h0v0l0,0h.007l.008,0v0c.009,0,.011,0,.011-.007a.18.18,0,0,0,.057-.026l0,0L4.749,5.8l.08-.05.011,0,.007,0h0c.006,0,.009,0,.009,0h.007s0,0,0,0a.113.113,0,0,0,.02-.015l.019-.008.008,0h.006s0,0,0,0h0s0,0,.007,0v0h0l0,0h0v0l.011-.007.046-.026.022-.008.045-.023,0,0s0,0,0,0h.008v0H5.1l.007-.008a.108.108,0,0,0,.055-.029l.021-.012H5.2a0,0,0,0,0,0,0,.012.012,0,0,0,.007,0l0,0s0,0,0,0h.011l0,0,0,0h0l0,0,.007,0s0,0,.008,0h.008l0,0,0,0c.006,0,.007,0,.007,0l.016-.007.008,0L5.312,5.5l.055-.022L5.6,5.35l.363-.186.1-.05.093-.048.163-.087L6.462,4.9l.087-.046.045-.022.022-.016.009,0,0,0,.011,0L6.651,4.8a.137.137,0,0,0,.032-.015l.009,0,.026-.015a.579.579,0,0,1,.062-.034.164.164,0,0,0,.033-.015l.007,0,0,0L6.847,4.7l.016-.008a.17.17,0,0,1,.03-.015l.013-.007s0,0,0,0h.008l.029-.015h0s0,0,0,0,0,0,0,0l.011,0a.007.007,0,0,1,.006,0l0,0A.054.054,0,0,0,7,4.62H7a.062.062,0,0,0,.027-.015s.007,0,.012-.008a.026.026,0,0,0,.022-.011l.011,0,.011-.008a.02.02,0,0,0,.013-.008l.007,0c.006,0,.007,0,.007,0l.013,0h0s0,0,0,0h0s0,0,0,0v0l.01,0,.112-.057.031-.016.021-.015a.038.038,0,0,0,.02-.008l.008,0h.007a.006.006,0,0,1,0,0,0,0,0,0,0,0,0l0,0,.009,0v0h0s0,0,0,0a.006.006,0,0,1,0,0L7.4,4.408,7.419,4.4l.017-.009.047-.025.008,0,0-.008a.266.266,0,0,0,.08-.038l.014-.007L7.6,4.3a.1.1,0,0,0,.022-.008l0,0a.011.011,0,0,1,.007,0h0l0,0s0,0,0,0,.023-.008.026-.016l.016-.008.034-.015a.288.288,0,0,0,.052-.026l.011-.006.01-.006.007,0,.012-.008.015-.007a.045.045,0,0,0,.02-.008l.006,0,.006,0,.015-.008.007,0,0,0L7.9,4.147l.009,0,.019-.012.012-.008L9,3.573,9.136,3.5l.638-.337.209-.108.634-.333.647-.341.275-.144.474-.253.4-.208.533-.28.307-.162c.68-.355,1.555-.814,2.291-1.21A.992.992,0,0,1,15.981,0a1.013,1.013,0,0,1,.454.129C20.543,2.3,25.161,4.725,27.028,5.7l1.388.73.235.124.033.016.245.132c.127.069.261.139.391.207l.01,0,.13.068.136.072.016.007c.116.063.175.093.2.105l.007,0,.855.446.854.45h0v0h.011l0,0h.007v0l.021.007.007,0,0,0,.008,0,.011.008h0l0,0v0l.027.016.034.016c.052.032.085.05.109.063h0a.408.408,0,0,1,.209.462.388.388,0,0,1-.383.34h-.038c-.067,0-.105.011-.129.038s-.033.091-.033.17v.015c0,.083,0,.186.007.317v.23a6.123,6.123,0,0,1-.037.916,1.16,1.16,0,0,1-.624.94.368.368,0,0,0-.212.375c.014.418.006.88,0,1.077v.363l0,.166v.019a1.349,1.349,0,0,1-.253.855,1.324,1.324,0,0,1-.765.457c-.128.034-.172.089-.165.208,0,.03,0,.061,0,.083v.03c0,.009,0,.011,0,.011v.038l0,1.468c0,3.042,0,6.188-.011,9.28,0,.222.042.329.291.383a1.2,1.2,0,0,1,.9,1.176c.008.335.008.7,0,1.267v.242l0,.071v.2c0,.126.01.221.141.283a1.3,1.3,0,0,1,.719,1.191c.016.314.017.7.007,1.244,0,.259-.1.4-.287.446ZM2.432,30.42c-.439,0-.715.007-.84.14s-.138.35-.151.851c0,.15.02.23.068.276s.125.067.287.067h28.19c.536,0,.536,0,.536-.533,0-.693-.1-.8-.794-.8Zm22.336-1.573a.272.272,0,0,0-.2.061.24.24,0,0,0-.038.177v0l0,0V29.1l0,.012v.137a.27.27,0,0,0,.034.219.244.244,0,0,0,.193.061.062.062,0,0,0,.026,0c.351-.008.668-.012,1-.012h.287l.053,0H28l.064,0h.3c.332,0,.646,0,1.018.012h.026a.265.265,0,0,0,.207-.061c.046-.048.05-.123.039-.253a.383.383,0,0,1,0-.095v-.034a.269.269,0,0,0-.042-.178.288.288,0,0,0-.2-.061H29.4c-.556.011-1.189.015-2.266.015-1.095,0-1.776,0-2.355-.015Zm-2.3.675c.379,0,.669,0,.942.01h.019a.244.244,0,0,0,.181-.049c.035-.036.049-.093.047-.2-.015-.506-.017-1.037,0-1.625a1.21,1.21,0,0,1,.889-1.187c.265-.059.307-.166.307-.4-.009-2.581-.009-5.21-.009-7.753v-.844c0-.359,0-.718,0-1.076v-1.1c0-.009,0-.018,0-.026,0-.039,0-.074,0-.105.01-.125-.033-.177-.174-.208a1.23,1.23,0,0,1-1.018-1.309v-.093c0-.48-.007-.978,0-1.469,0-.17-.031-.241-.226-.241-.646,0-1.278.008-1.883.008s-1.238,0-1.883-.008a.238.238,0,0,0-.182.05.247.247,0,0,0-.046.188c.011.551.011,1.108,0,1.659a1.2,1.2,0,0,1-.919,1.191c-.241.053-.268.155-.268.358,0,1.237,0,2.5,0,3.72v.609c0,.241,0,.481,0,.723v5.834c0,.119,0,.221.179.268a1.21,1.21,0,0,1,1.009,1.309c0,.087,0,.171,0,.255,0,.417.008.848-.006,1.275a.269.269,0,0,0,.045.2.25.25,0,0,0,.185.05h.017c.268-.007.554-.01.925-.01h1.864ZM6.182,29.516c.4,0,.72.008,1.014.016h.02a.253.253,0,0,0,.188-.054.238.238,0,0,0,.037-.185v-.026a.191.191,0,0,0,0-.022.1.1,0,0,1,0-.023v-.071a.092.092,0,0,0,0-.03V29.1a.255.255,0,0,0-.037-.193.276.276,0,0,0-.2-.057H7.188c-.769.008-1.547.011-2.312.011s-1.541,0-2.3-.011H2.56a.275.275,0,0,0-.2.057.3.3,0,0,0-.041.2.076.076,0,0,0,0,.021.138.138,0,0,1,0,.021.118.118,0,0,0,0,.019.048.048,0,0,1,0,.02.139.139,0,0,1,0,.034v.011a.069.069,0,0,0,0,.026.284.284,0,0,0,.045.212.235.235,0,0,0,.186.057h.023c.289-.008.605-.016,1-.016l.1,0H3.7l.063,0h.628c.031,0,.061,0,.091,0h.768c.032,0,.063,0,.095,0h.64l.063,0h.031Zm9.8,0c.389,0,.776,0,1.239,0l.48,0h.62a.257.257,0,0,0,.191-.057.22.22,0,0,0,.035-.176l0-.014v-.011l0-.012v-.053a.677.677,0,0,1,0-.087V29.1a.258.258,0,0,0-.026-.189.248.248,0,0,0-.186-.057h-.023c-.269.008-.549.011-.937.011-.212,0-.432,0-.677,0H15.335c-.3,0-.515,0-.688,0-.389,0-.7,0-.982-.011h-.02c-.1,0-.158.019-.185.054a.272.272,0,0,0-.034.2l0,0v.023l0,.011v.03a.4.4,0,0,1,0,.068v.03l-.007,0v.011a.229.229,0,0,0,.037.182c.028.04.086.057.193.057h.631l.466,0C15.211,29.521,15.6,29.521,15.986,29.521Zm-5.559,0c.63,0,1.268,0,1.864.007h.015a.248.248,0,0,0,.189-.053c.04-.037.055-.1.049-.22-.012-.63-.012-1.146,0-1.626a1.193,1.193,0,0,1,.907-1.168c.271-.053.284-.175.284-.386-.008-2.411-.008-4.873-.008-7.255V15.164c0-.11-.021-.173-.163-.211a1.231,1.231,0,0,1-1.024-1.335l0-.215v-.065c0-.407-.007-.828.008-1.251a.267.267,0,0,0-.049-.192.282.282,0,0,0-.209-.053l-.428,0c-.477,0-.979.006-1.435.006s-.96,0-1.439-.006l-.426,0a.253.253,0,0,0-.191.053.229.229,0,0,0-.042.178c.011.553.011,1.111,0,1.659a1.179,1.179,0,0,1-.916,1.191c-.274.057-.274.186-.274.382v.008c0,1.8,0,3.623,0,5.391s0,3.614,0,5.422v.022c0,.142,0,.253.2.3a1.2,1.2,0,0,1,.987,1.232c.011.537.011,1.059,0,1.6a.275.275,0,0,0,.042.2.232.232,0,0,0,.178.05h.018C9.164,29.523,9.8,29.521,10.428,29.521ZM7.215,27.985h.007A.28.28,0,0,0,7.309,28c.077,0,.119-.047.128-.147.02-.218.016-.457-.271-.537a.966.966,0,0,0-.249-.026H2.844a.944.944,0,0,0-.25.026c-.294.08-.291.321-.265.541.011.1.05.14.125.14a.328.328,0,0,0,.105-.015h.013l0,0a.528.528,0,0,1,.072-.008h0c.423.008.842.008,1.148.008h.529c.175,0,.352,0,.521,0,.186,0,.359,0,.542,0h.536c.315,0,.749,0,1.179-.008H7.12a.453.453,0,0,1,.083.012l0,0Zm19.87-.7c-.623,0-1.33,0-2.048,0a.958.958,0,0,0-.311.054c-.227.105-.21.321-.2.5l0,.018,0,0,0,0,0,0c.012.091.047.128.118.128a.4.4,0,0,0,.1-.015h.011v0h.015l.011,0H24.8l.008,0h.041c.428.007.865.007,1.185.007h1.92c.334,0,.79,0,1.384,0h0s0,0,.008,0h.041l.012,0h.026a.4.4,0,0,0,.09.008c.068,0,.1-.017.108-.057a.591.591,0,0,0-.032-.462.476.476,0,0,0-.453-.182H27.085Zm-13.156-.007a.568.568,0,0,0-.307.057c-.218.116-.212.316-.186.529.008.083.049.124.122.124a.28.28,0,0,0,.095-.015h.011l.007,0h.023s0,0,0,0a.163.163,0,0,1,.046,0h.009c.206,0,.522.008,1.125.008h1c.045,0,.088,0,.129,0h.249c.084,0,.164,0,.242,0h.506c.3,0,.768,0,1.229-.008l.012,0a.139.139,0,0,0,.023,0l0,0h.033l.007,0h.013l0,0h.011a.427.427,0,0,0,.069.008.11.11,0,0,0,.123-.1.5.5,0,0,0-.062-.45V27.43a.49.49,0,0,0-.435-.151H13.929Zm12.079-12.3a.352.352,0,0,0-.234.064.376.376,0,0,0-.071.271l0,.469v.541c0,.841.007,1.757.007,2.723v.684c-.007.321-.007.652-.007.972v.7c.007.23.007.465.007.692v.869c0,1.036,0,2.106-.011,3.161,0,.123.019.188.063.227s.089.057.2.057h.095c.444-.008.907-.015,1.27-.015.286,0,.558,0,.847.007h.034a.278.278,0,0,0,.209-.056.36.36,0,0,0,.06-.254c-.012-3.892-.012-7.526,0-10.806,0-.233-.062-.3-.279-.3h-.023c-.356.01-.708.015-1.107.015-.472,0-.78,0-1.031-.015h-.031ZM15.967,26.386c.349,0,.714,0,1.007.007h.149a.053.053,0,0,0,.023,0c.174,0,.224-.057.224-.253,0-3.618,0-7.289,0-10.911,0-.187-.06-.246-.247-.246h-.011l-.181,0c-.372,0-.677,0-1,0-.444,0-.748,0-1.017-.015H14.89a.309.309,0,0,0-.224.064.369.369,0,0,0-.067.264c.011,1.309.011,2.639.011,3.925v.189c-.007.416-.007.837-.007,1.243v5.456c0,.194.033.275.241.275h.019C15.314,26.389,15.654,26.386,15.967,26.386Zm-11.062,0c.338,0,.678,0,1.038.011h.034a.305.305,0,0,0,.224-.061c.042-.041.06-.115.06-.249,0-1.093,0-2.213,0-3.3V19.21c0-1.288,0-2.62,0-3.932a.32.32,0,0,0-.057-.228.313.313,0,0,0-.211-.057H5.982c-.228,0-.476,0-.82,0-.475,0-.936,0-1.41-.012H3.736c-.184,0-.242.062-.242.25,0,3.619,0,7.288,0,10.907a.277.277,0,0,0,.049.2.235.235,0,0,0,.186.053h.015C4.2,26.389,4.573,26.386,4.905,26.386ZM24.673,13.4a.115.115,0,0,0-.124.1.436.436,0,0,0,.469.608h1.655c.814,0,1.656,0,2.484,0a.694.694,0,0,0,.279-.045c.239-.095.234-.313.208-.548a.12.12,0,0,0-.125-.118.365.365,0,0,0-.075.012h-.011l0,0h-.007l-.013,0h0a.305.305,0,0,1-.08.012c-.316-.008-.7-.008-1.187-.008H26.079c-.364,0-.778,0-1.205.008a.16.16,0,0,1-.046,0H24.82l-.019,0h-.008l-.019-.008h-.026a.012.012,0,0,0-.008,0H24.73l-.015,0-.006,0Zm-11.046.019a.219.219,0,0,0-.16.041.232.232,0,0,0-.044.166.481.481,0,0,0,.116.371.569.569,0,0,0,.408.1c.518,0,1.047,0,1.559,0,.484,0,.985,0,1.426,0h1.1a.764.764,0,0,0,.28-.037c.252-.088.252-.312.23-.533-.008-.089-.047-.133-.12-.133a.148.148,0,0,0-.053.008h-.016c-.006,0-.008,0-.009,0v0l0,0s0,0,0,0h-.023l0,0h0l0,0-.022,0h-.007a.127.127,0,0,1-.039,0c-.43-.008-.869-.008-1.19-.008H15.671c-.055,0-.112,0-.165,0H13.982c-.114,0-.229,0-.341,0ZM2.458,13.4c-.077,0-.123.049-.129.141-.026.234-.028.47.265.536a1.237,1.237,0,0,0,.312.026l.044,0h.616c.108,0,.22,0,.329,0H6.851a1.237,1.237,0,0,0,.314-.026c.284-.067.29-.3.271-.536-.009-.094-.055-.141-.132-.141a.327.327,0,0,0-.091.016H7.2a.311.311,0,0,1-.092.016H6.629l-.379,0H5.529c-.224,0-.44,0-.652,0-.44,0-.9,0-1.428.006h-.8a.412.412,0,0,1-.079-.012l0,0H2.56a.076.076,0,0,1-.029,0l-.008,0h0a.252.252,0,0,1-.028,0H2.484Zm14.79-.873c.334,0,.658,0,1.021.012a.077.077,0,0,0,.022,0,.273.273,0,0,0,.223-.067c.042-.041.053-.117.034-.246a1,1,0,0,1,0-.109V12.1l0,0v-.016a.2.2,0,0,0-.257-.245h-.008c-.662.008-1.414.012-2.3.012s-1.634,0-2.292-.012h-.011a.3.3,0,0,0-.217.06.258.258,0,0,0-.037.186l0,0v.084a.2.2,0,0,1,0,.06.284.284,0,0,0,.033.242c.029.047.1.067.22.067h.026c.3-.011.609-.011,1.006-.011h.915a1.014,1.014,0,0,1,.109,0h.23v0H16.9C16.961,12.525,17.1,12.525,17.248,12.525Zm7.5-.684a.272.272,0,0,0-.2.061.23.23,0,0,0-.024.157v.035l.007,0,0,.008v.011a.523.523,0,0,1,.008.133c-.023.115-.025.183.015.227a.227.227,0,0,0,.189.061h.019c.3-.008.6-.008.987-.008h.816a.214.214,0,0,1,.049,0h.47l0,0H29.2c.234,0,.352,0,.412-.057s.053-.168.049-.359v-.057c-.012-.167-.062-.215-.22-.215h-.386c-.691,0-1.4,0-2.086,0-.883,0-1.581,0-2.215,0Zm-22.208,0c-.105,0-.166.018-.2.061a.242.242,0,0,0-.025.192l0,.012a.335.335,0,0,1,.016.139c-.021.107-.026.188.015.235a.238.238,0,0,0,.188.057h.02c.317-.008.627-.008.986-.008h.67l.149,0h.52l0,0H6.991c.23,0,.348,0,.405-.057s.056-.158.049-.371v-.045c-.006-.167-.054-.215-.216-.215H6.653c-.593,0-1.265.008-1.893.008-.737,0-1.45,0-1.989-.008h-.23ZM2,8.745c-.383.008-.537.161-.548.548-.006.154-.006.346,0,.567v.355c0,.323.021.52.133.627s.306.133.623.133H29.986c.366-.022.522-.18.536-.541V9.479c0-.631-.1-.733-.745-.733H2ZM3.06,7.69l0,0a.352.352,0,0,0-.173.137H29.143l0,0h-.008l0,0-.01,0-.008,0h0c-.006,0-.011,0-.011-.008s-.008,0-.008,0h0v0h0s-.007,0-.007,0h0v0h0l0,0H29.07v0h-.008a.005.005,0,0,1,0,0l0,0h0s0,0,0-.008h-.007l0,0v0l-.013,0h0s0,0,0,0h-.011V7.747l0,0H29l-.008,0,0,0h0s-.006,0-.006,0v0h-.007a.048.048,0,0,0-.013,0l0,0a.065.065,0,0,1-.026-.016l-.008,0h0a.016.016,0,0,1-.01,0L28.9,7.69l-.03-.019-.023-.012L27.028,6.7l-1.081-.57-.359-.186-.764-.4-.511-.272-1.355-.711C20.4,3.224,18.465,2.2,16.266,1.032a.669.669,0,0,0-.279-.079.65.65,0,0,0-.276.079l-.122.064c-.175.1-.382.205-.616.328l-.029.016-.4.213-.15.079-.229.121-.013.007c-.294.156-.593.313-.888.468l-.592.311-.268.141-.049.026-.167.087-.075.038-.137.075-.007,0c-.105.059-.214.115-.359.189l-.079.041-.026.015-.03.016a.053.053,0,0,1-.02.011l0,0a.037.037,0,0,0-.013.006.012.012,0,0,1-.011,0s0,0-.007,0l-.043.023c-.023.013-.05.028-.078.041l-.006,0-.014.008-.02.011-.022.008-.544.291-.839.438-.091.05-.118.06L9.6,4.257a.027.027,0,0,1-.015.008l-.007,0h0l0,0-.006,0s0,0,0,0L9.521,4.3h0l0,0s0,0,0,0H9.5v.008l0,0,0,0h0l0,0a.041.041,0,0,1-.02.008l0,0s0,0,0,0v0l0,0-.012,0L9.4,4.359l-.125.064-.113.057-.053.03c-.09.05-.174.1-.238.125l0,0-.008,0-.042.021-.714.379-.525.271-.34.178-.167.088L6.9,5.675l-.12.061a.5.5,0,0,1-.05.028l-.022.014-.016.008-.015,0a.127.127,0,0,1-.058.03l-.045.026a.349.349,0,0,1-.038.021l-.021.011L6.5,5.887l-.159.083L6.287,6l-.057.03-.007,0s0,0-.007,0,0,0,0,0a.189.189,0,0,0-.038.019h0l0,0a.014.014,0,0,0-.012.008h0s-.007,0-.011.007a.015.015,0,0,0-.013.007H6.122L6.1,6.095l-.121.064-.155.083L5.8,6.25l-.011.007-.019.011a.041.041,0,0,1-.016.009l-.012.007-.018.012a.252.252,0,0,0-.04.02l-.006,0-.009,0-.007,0-.007,0-.008,0,0,0L5.6,6.359s0,0,0,0a.011.011,0,0,1-.007,0l0,0H5.574l-.009.008s-.011,0-.011.008a.066.066,0,0,0-.033.016l-.055.026-.021.012s0,0,0,0l0,0H5.43l0,0h0l0,0,0,0h0s0,0-.007,0L5.4,6.466l-.007,0L5.324,6.5l-.016.011H5.3l0,0-.013.007-.027.015a.117.117,0,0,1-.021.012l-.007,0-.023.012-.08.042-.066.034-.08.041a.093.093,0,0,1-.021.012l0,.007a.1.1,0,0,1-.018.008l0,0a.093.093,0,0,0-.017.01s0,0-.007,0l0,0h0a.012.012,0,0,1-.008,0s0,0,0,0H4.877v0s0,0,0,0l-.012,0-.007,0,0,0h0a.009.009,0,0,1-.007,0,.015.015,0,0,1-.011,0L4.8,6.782l-.063.034-.042.023-.011.007-.01,0a1.792,1.792,0,0,1-.161.079l-.007,0c-.008.008-.013.008-.013.008l0,0s0,0,0,0v0l0,0a.03.03,0,0,1-.007.009h0l-.008,0h0l-.015.008s0,0-.008,0l0,0h0l0,0a.012.012,0,0,1-.008,0l-.049.022-.224.117-.05.026,0,0-.105.053-.043.027-.026.015a.222.222,0,0,0-.053.026L3.822,7.3,3.8,7.308l-.022.012a.162.162,0,0,0-.024.015l0,0-.06.033-.022.011h0l-.537.28,0,0-.008,0s0,0-.012,0l0,0-.011,0,0,0-.014.008Z" transform="translate(671.467 247.068)" fill="#eb0e15"/>
  </g>
</svg>
