<svg xmlns="http://www.w3.org/2000/svg" width="32" height="32" viewBox="0 0 32 32">
  <g id="Group_22432" data-name="Group 22432" transform="translate(-768.078 -348.071)">
    <path id="Subtraction_38" data-name="Subtraction 38" d="M9.627,26.6H9.44a.093.093,0,0,0-.063-.03.092.092,0,0,0-.062.03H8.94a.339.339,0,0,0-.312,0H8.252a.479.479,0,0,0-.375,0h-.5a3.371,3.371,0,0,0-.78-.15c-.14-.016-.286-.032-.427-.058A13.38,13.38,0,0,1,4.592,26a13.229,13.229,0,0,1-1.5-.569,13.664,13.664,0,0,1-1.417-.744,14.712,14.712,0,0,1-1.341-.913l-.015-.011c-.416-.318-.416-.318-.092-.757L.9,22.1l.668-.906c1.917-2.6,3.9-5.285,5.856-7.933a.857.857,0,0,0,.181-.541c-.006-3.875,0-7.784,0-11.565V.878C7.6.8,7.6.721,7.589.642v0A.824.824,0,0,1,7.651.093.331.331,0,0,1,7.923,0a2.229,2.229,0,0,1,.253.02h0a2.259,2.259,0,0,0,.251.02h.023a14.492,14.492,0,0,1,1.966.132,13.09,13.09,0,0,1,1.888.4,12.536,12.536,0,0,1,1.8.683,12.833,12.833,0,0,1,1.712.974A14.712,14.712,0,0,1,18.07,4.088a12.648,12.648,0,0,1,2.946,4.7,14.638,14.638,0,0,1,.688,2.843,1.354,1.354,0,0,1,.01.151h0a.566.566,0,0,0,.1.372v.25a.145.145,0,0,0-.032.121.35.35,0,0,1,0,.053c0,.01,0,.021,0,.031h0a.128.128,0,0,0,.032.106v1.187a.146.146,0,0,0-.032.122.349.349,0,0,1,0,.053c0,.01,0,.021,0,.031h0a.128.128,0,0,0,.032.106v.312a12.787,12.787,0,0,1-.4,2.327,13.756,13.756,0,0,1-1.132,2.805,13.164,13.164,0,0,1-1.737,2.474,14.277,14.277,0,0,1-1.692,1.621,12.826,12.826,0,0,1-3.967,2.187,14.072,14.072,0,0,1-2.276.562,3.721,3.721,0,0,1-.449.036,3.121,3.121,0,0,0-.536.052ZM9.691,1.971a.214.214,0,0,0-.161.048.353.353,0,0,0-.06.253c.006,2.1.007,4.233.008,6.3V8.8c0,1.448,0,2.988,0,4.5a.933.933,0,0,1-.2.6C8.27,15.27,7.239,16.667,6.241,18.018l-.089.121C4.923,19.8,3.815,21.3,2.7,22.806c-.06.082-.1.147-.086.2s.056.093.159.153a11.7,11.7,0,0,0,1.35.673,11.277,11.277,0,0,0,1.4.482,11.453,11.453,0,0,0,1.452.294,12.248,12.248,0,0,0,1.5.109h.1a11.05,11.05,0,0,0,2.129-.212,11.532,11.532,0,0,0,2.182-.658,11.358,11.358,0,0,0,3.638-2.414,11.431,11.431,0,0,0,3.118-5.606,11.368,11.368,0,0,0,.275-2.195,11.529,11.529,0,0,0-.164-2.272,11.291,11.291,0,0,0-1.217-3.492,11.517,11.517,0,0,0-5.2-4.9A11.137,11.137,0,0,0,9.8,1.978,1,1,0,0,0,9.691,1.971Z" transform="translate(778.264 353.476)" fill="#ed1c26"/>
    <path id="Subtraction_39" data-name="Subtraction 39" d="M6.144,20.531A.26.26,0,0,1,6,20.474a15.652,15.652,0,0,1-1.788-1.44,13.722,13.722,0,0,1-1.5-1.656,13.053,13.053,0,0,1-1.2-1.884,13.589,13.589,0,0,1-.886-2.122,13.758,13.758,0,0,1-.56-2.648.288.288,0,0,1,0-.05h0c0-.054.006-.109-.068-.134v-.25a.122.122,0,0,0,.032-.1c0-.007,0-.015,0-.022s0-.015,0-.022A.121.121,0,0,0,0,10.04V9.852a.478.478,0,0,0,0-.375V8.664a.143.143,0,0,0,0-.187V8.164a4.317,4.317,0,0,0,.169-.87c.021-.171.043-.347.078-.52A13.212,13.212,0,0,1,1.514,3.186,14.02,14.02,0,0,1,2.5,1.578,15.673,15.673,0,0,1,3.717.083.2.2,0,0,1,3.854,0c.052,0,.091.043.129.084l0,0A.589.589,0,0,0,4.03.131c1.152.989,2.3,1.978,3.667,3.158l1.134.979.425.367h0c1.665,1.438,3.387,2.925,5.086,4.38.095.081.135.139.14.2a.355.355,0,0,1-.1.217C12.6,11.839,10.743,14.359,9.1,16.583L6.323,20.347a.664.664,0,0,0-.036.057l0,.005C6.25,20.469,6.214,20.531,6.144,20.531ZM4.078,2.7c-.069,0-.122.061-.192.166A12.944,12.944,0,0,0,2.652,5.2,11.054,11.054,0,0,0,1.99,7.623a10.891,10.891,0,0,0-.085,2.508,12.529,12.529,0,0,0,.5,2.591A11.045,11.045,0,0,0,2.963,14.2a10.889,10.889,0,0,0,.754,1.356,11.31,11.31,0,0,0,.94,1.239,12.389,12.389,0,0,0,1.119,1.124l.035-.039,0,0a.657.657,0,0,0,.053-.062L7.129,16.1l.082-.111c1.527-2.07,3.106-4.21,4.663-6.311a.252.252,0,0,0,.071-.2.349.349,0,0,0-.128-.161C9.592,7.4,6.956,5.133,4.273,2.805A.332.332,0,0,0,4.078,2.7Z" transform="translate(768.078 355.532)" fill="#ed1c26"/>
    <path id="Subtraction_40" data-name="Subtraction 40" d="M9.851,13.106h0L7.732,11.279l-1.623-1.4L6.019,9.8C4.093,8.139,2.1,6.421.138,4.737.043,4.657,0,4.6,0,4.543a.347.347,0,0,1,.106-.211,13.815,13.815,0,0,1,.988-1.086,12.06,12.06,0,0,1,1.088-.952,11.04,11.04,0,0,1,1.2-.807A10.776,10.776,0,0,1,4.7.838,12.982,12.982,0,0,1,7.892,0h.562a.5.5,0,0,0,.187.038A.5.5,0,0,0,8.829,0h1c0,.032.006.065.009.093.005.054.012.121.012.185,0,2.677,0,5.408,0,8.049V9.648q0,.781,0,1.562v1.9ZM7.835,1.937a.792.792,0,0,0-.114.012h0l-.024,0a9.983,9.983,0,0,0-1.338.289A9.305,9.305,0,0,0,5.1,2.707a9.2,9.2,0,0,0-1.176.644,9.732,9.732,0,0,0-1.094.824c-.091.079-.147.141-.146.208s.043.118.141.2c.665.558,1.329,1.133,1.971,1.689l.731.632.749.645.157.136,1.31,1.129L7.957,9c0-.029.006-.054.009-.074l0-.016a.794.794,0,0,0,.008-.093c0-.6,0-1.223,0-1.772,0-1.6,0-3.253.008-4.884a.265.265,0,0,0-.048-.188A.133.133,0,0,0,7.835,1.937Z" transform="translate(773.186 348.071)" fill="#ed1c26"/>
    <path id="Path_78793" data-name="Path 78793" d="M931.139,348.072a.284.284,0,0,1-.375,0Z" transform="translate(-149.123 -0.001)" fill="#ed1c26"/>
    <path id="Path_78794" data-name="Path 78794" d="M768.078,551.246a.281.281,0,0,1,0,.375Z" transform="translate(0 -186.237)" fill="#ed1c26"/>
    <path id="Path_78795" data-name="Path 78795" d="M984.743,731.135a.28.28,0,0,1,.375,0Z" transform="translate(-198.602 -351.064)" fill="#ed1c26"/>
    <path id="Path_78796" data-name="Path 78796" d="M993.74,731.169a.211.211,0,0,1,.312,0Z" transform="translate(-206.849 -351.097)" fill="#ed1c26"/>
    <path id="Path_78797" data-name="Path 78797" d="M768.078,539.25c.1.063.073.125,0,.188Z" transform="translate(0 -175.241)" fill="#ed1c26"/>
    <path id="Path_78798" data-name="Path 78798" d="M1151.181,561.923c0-.065-.053-.145.05-.181v.188C1151.211,561.959,1151.194,561.957,1151.181,561.923Z" transform="translate(-351.153 -195.858)" fill="#ed1c26"/>
    <path id="Path_78799" data-name="Path 78799" d="M1151.2,579.926c-.008-.071-.024-.145.054-.192v.187Q1151.227,579.962,1151.2,579.926Z" transform="translate(-351.174 -212.351)" fill="#ed1c26"/>
    <path id="Path_78800" data-name="Path 78800" d="M768.078,557.993c.061.025.063.074.052.129-.019.023-.037.024-.052,0Z" transform="translate(0 -192.421)" fill="#ed1c26"/>
    <path id="Path_78801" data-name="Path 78801" d="M768.078,559.493l.052,0c.008.051.024.107-.052.121Z" transform="translate(0 -193.796)" fill="#ed1c26"/>
    <path id="Path_78802" data-name="Path 78802" d="M1151.258,563.914a.212.212,0,0,1,.05.006v.125C1151.247,564.018,1151.245,563.969,1151.258,563.914Z" transform="translate(-351.23 -197.849)" fill="#ed1c26"/>
    <path id="Path_78803" data-name="Path 78803" d="M1151.225,581.988a.452.452,0,0,1,.054,0v.125C1151.205,582.094,1151.219,582.039,1151.225,581.988Z" transform="translate(-351.201 -214.412)" fill="#ed1c26"/>
    <path id="Path_78804" data-name="Path 78804" d="M1001.986,731.223c.042-.077.083-.093.125,0Z" transform="translate(-214.408 -351.152)" fill="#ed1c26"/>
  </g>
</svg>
