<svg xmlns="http://www.w3.org/2000/svg" width="34" height="25.499" viewBox="0 0 34 25.499">
  <path id="Union_6" data-name="Union 6" d="M18.381,23.012a1.193,1.193,0,0,1-1.153-1.153V13.179a1.193,1.193,0,0,1,1.153-1.152H32.848A1.191,1.191,0,0,1,34,13.179v8.681a1.191,1.191,0,0,1-1.152,1.153Zm-.241-1.153a.232.232,0,0,0,.08.161c.018.053.071.081.161.081H32.848c.088,0,.142-.028.16-.081a.229.229,0,0,0,.08-.161v-4.34H18.139Zm.08-8.842a.234.234,0,0,0-.08.161v1.607H33.089V13.179a.228.228,0,0,0-.081-.161c-.018-.053-.071-.08-.159-.08H18.381C18.291,12.938,18.238,12.965,18.22,13.018Zm3.591,8.172v-.938h2.732v.938Zm-2.76,0v-.938H20.9v.938Zm-6.362-.536H11.267c-1.8,0-3.378,0-4.82,0-1.212,0-2.273,0-3.244,0H3.2A3.081,3.081,0,0,1,.157,18.335,3.76,3.76,0,0,1,0,17.229v-.794q0-.792,0-1.586c0-.467.182-.667.6-.668l.307,0h.153l.8,0c.366,0,.7,0,1.043.008h.02c.175,0,.223-.057.224-.266.015-3.821.038-7.945.071-12.979,0-.113,0-.23,0-.333a5.61,5.61,0,0,1,.045-.989,2.375,2.375,0,0,1,2.354-2.1q.956,0,1.912,0h3.06q1.341,0,2.682,0c1,0,1.88,0,2.683,0,1.52,0,2.78.006,3.964.019A2.525,2.525,0,0,1,22.4-.1a.11.11,0,0,0,.016.037.106.106,0,0,1,.014.024V8.545a.614.614,0,0,1-.63.416h-.015c-.312,0-.62,0-1.027,0h-.779c-.321,0-.687,0-1.05,0a.962.962,0,0,1-.721-.276c-.632-.638-.613-2.389-.581-5.288.008-.734.017-1.565.016-2.462a3.306,3.306,0,0,1,.489-2l-.067-.006c-.029,0-.045,0-.062,0H11.768c-2.409,0-4.389,0-6.231,0A1.36,1.36,0,0,0,4.207.428Q4.193,2.462,4.181,4.5v.021c-.02,3.105-.041,6.315-.064,9.472a.324.324,0,0,0,.051.23.255.255,0,0,0,.187.05c1.84-.006,3.7-.006,5.274-.006h3.162c.53,0,.684.172.687.766,0,.247,0,.5,0,.74,0,.569-.006,1.155.024,1.729a1.928,1.928,0,0,0,1.866,2.072,2.513,2.513,0,0,0,.7-.107,5.407,5.407,0,0,1-.513,1.163.071.071,0,0,1-.044.029ZM1.009,15.377a.2.2,0,0,0-.032.141c.009.268.007.541.005.8v.054c0,.343-.005.77.022,1.174a2.113,2.113,0,0,0,1.945,2.005H13.3a3.8,3.8,0,0,1-.815-2.539c0-.22,0-.444,0-.653,0-.254,0-.517,0-.776a.28.28,0,0,0-.04-.2c-.032-.037-.085-.051-.188-.051-1.436,0-2.823.005-3.741.005H1.118A.138.138,0,0,0,1.009,15.377ZM18.622.59c0,.855,0,1.706,0,2.529q0,.528,0,1.054v.914c0,.978,0,1.85,0,2.741,0,.121,0,.2.154.2.367,0,.756-.006,1.261-.006.266,0,.649,0,1.259,0,.122,0,.158-.04.158-.176,0-.852,0-1.826,0-3.156,0-1.346,0-2.739,0-4.1A1.553,1.553,0,0,0,20.5-.942a1.388,1.388,0,0,0-.486-.089A1.494,1.494,0,0,0,18.622.59Zm-7.955,9.774H6.529a1.848,1.848,0,0,1-.283-.017A.478.478,0,0,1,6.212,9.4a.97.97,0,0,1,.217-.023H14.88c.423,0,.656.239.587.593a.436.436,0,0,1-.357.365,1.432,1.432,0,0,1-.3.024H10.667Zm4.145-3.518H6.494c-.437,0-.666-.167-.669-.485s.227-.492.661-.492h4.18q2.124,0,4.247,0c.364,0,.585.208.565.517a.474.474,0,0,1-.406.447,1.52,1.52,0,0,1-.231.013ZM8.652,3.335H6.4a.525.525,0,0,1-.49-.228.476.476,0,0,1,.325-.737,1.251,1.251,0,0,1,.217-.016h4.378c.332,0,.531.112.6.332a.5.5,0,0,1-.522.647c-.322,0-.644,0-.967,0Z" transform="translate(0 2.487)" fill="#eb0e15"/>
</svg>
