<svg xmlns="http://www.w3.org/2000/svg" width="30.425" height="34.71" viewBox="0 0 30.425 34.71">
  <g id="Group_22156" data-name="Group 22156" transform="translate(-1029.8 -240.8)">
    <path id="Path_16210" data-name="Path 16210" d="M.486,33.58a.444.444,0,0,0,.47-.053l2.491-1.993,2.491,1.993a.444.444,0,0,0,.555,0l2.491-1.993,2.491,1.993a.445.445,0,0,0,.557,0l2.921-2.369.536.32A2.13,2.13,0,0,0,17.5,34.31h.014l10.606-.065a2.128,2.128,0,0,0,1.791-3.257L24.554,21.81l-.008-.013a2.114,2.114,0,0,0-1.276-.928V12.286H29.1a.444.444,0,0,0,.444-.444V3.58A3.584,3.584,0,0,0,26.133,0V0H4.278A4.048,4.048,0,0,0,.234,4.044V33.18A.444.444,0,0,0,.486,33.58Zm23.3-11.314,5.356,9.177.008.013a1.24,1.24,0,0,1-1.041,1.9l-10.607.065H17.5a1.24,1.24,0,0,1-1.056-1.889l.008-.013,5.243-9.242a1.233,1.233,0,0,1,1.045-.585h.008a1.233,1.233,0,0,1,1.045.572ZM28.653,3.58V11.4H23.27V3.58a2.692,2.692,0,0,1,5.383,0Zm-27.53.464A3.159,3.159,0,0,1,4.278.889H23.6A3.571,3.571,0,0,0,22.381,3.58V20.837a2.112,2.112,0,0,0-1.449.982l-.008.013L15.9,30.687l-.759-.453a.444.444,0,0,0-.507.037l-2.884,2.339L9.262,30.618a.444.444,0,0,0-.555,0L6.216,32.61,3.725,30.618a.444.444,0,0,0-.555,0L1.122,32.255Zm0,0" transform="translate(1029.766 241)" fill="#ed1c26" stroke="#ed1c26" stroke-width="0.4"/>
    <path id="Path_16211" data-name="Path 16211" d="M39.5,192.353h.2a.444.444,0,1,0,0-.888h-.2a.444.444,0,1,0,0,.888Zm0,0" transform="translate(993.815 59.959)" fill="#ed1c26"/>
    <path id="Path_16212" data-name="Path 16212" d="M68.862,192.353h1.5a.444.444,0,1,0,0-.888h-1.5a.444.444,0,0,0,0,.888Zm0,0" transform="translate(966.631 59.959)" fill="#ed1c26"/>
    <path id="Path_16213" data-name="Path 16213" d="M116.186,192.353h10.722a.444.444,0,0,0,0-.888H116.186a.444.444,0,1,0,0,.888Zm0,0" transform="translate(922.807 59.959)" fill="#ed1c26"/>
    <path id="Path_16214" data-name="Path 16214" d="M39.5,135.373h.2a.444.444,0,0,0,0-.888h-.2a.444.444,0,0,0,0,.888Zm0,0" transform="translate(993.815 116.472)" fill="#ed1c26"/>
    <path id="Path_16217" data-name="Path 16217" d="M39.5,78.388h.2a.444.444,0,1,0,0-.888h-.2a.444.444,0,1,0,0,.888Zm0,0" transform="translate(993.815 169.237)" fill="#ed1c26"/>
    <path id="Path_16218" data-name="Path 16218" d="M68.862,78.388h1.5a.444.444,0,1,0,0-.888h-1.5a.444.444,0,0,0,0,.888Zm0,0" transform="translate(966.631 169.237)" fill="#ed1c26"/>
    <path id="Path_16219" data-name="Path 16219" d="M116.186,78.388h10.722a.444.444,0,0,0,0-.888H116.186a.444.444,0,1,0,0,.888Zm0,0" transform="translate(922.807 169.237)" fill="#ed1c26"/>
    <path id="Path_16220" data-name="Path 16220" d="M39.5,249.338h.2a.444.444,0,1,0,0-.888h-.2a.444.444,0,1,0,0,.888Zm0,0" transform="translate(993.815 7.193)" fill="#ed1c26"/>
    <path id="Path_16221" data-name="Path 16221" d="M68.862,249.338h1.5a.444.444,0,1,0,0-.888h-1.5a.444.444,0,0,0,0,.888Zm0,0" transform="translate(966.631 7.193)" fill="#ed1c26"/>
    <path id="Path_16222" data-name="Path 16222" d="M116.186,249.338h6.5a.444.444,0,0,0,0-.888h-6.5a.444.444,0,1,0,0,.888Zm0,0" transform="translate(922.807 7.193)" fill="#ed1c26"/>
    <path id="Path_16224" data-name="Path 16224" d="M111.151,364.119h3.755a.444.444,0,0,0,0-.888h-3.755a.444.444,0,0,0,0,.888Zm0,0" transform="translate(927.472 -99.091)" fill="#ed1c26"/>
    <path id="Icon_material-edit" data-name="Icon material-edit" d="M4.5,9.217v1.242H5.742L9.405,6.8,8.163,5.554Zm5.866-3.382a.33.33,0,0,0,0-.467l-.775-.775a.33.33,0,0,0-.467,0L8.518,5.2,9.76,6.441Z" transform="translate(1044.543 261.795)" fill="#ed1c26"/>
  </g>
</svg>
