<svg xmlns="http://www.w3.org/2000/svg" xmlns:xlink="http://www.w3.org/1999/xlink" width="225.749" height="204" viewBox="0 0 225.749 204">
  <defs>
    <linearGradient id="linear-gradient" x1="0.5" y1="1" x2="0.5" gradientUnits="objectBoundingBox">
      <stop offset="0" stop-color="gray" stop-opacity="0.251"/>
      <stop offset="0.54" stop-color="gray" stop-opacity="0.122"/>
      <stop offset="1" stop-color="gray" stop-opacity="0.102"/>
    </linearGradient>
  </defs>
  <g id="Group_22583" data-name="Group 22583" transform="translate(-1460.999 -1951)">
    <rect id="Rectangle_18984" data-name="Rectangle 18984" width="204" height="204" rx="102" transform="translate(1472 1951)" fill="#ed1c26" opacity="0.04"/>
    <g id="Group_22155" data-name="Group 22155" transform="translate(2784.182 -2384.369)">
      <ellipse id="Ellipse_499" data-name="Ellipse 499" cx="17.495" cy="57.572" rx="17.495" ry="57.572" transform="translate(-1217.251 4463.497) rotate(-78.45)" fill="#6c63ff" opacity="0.1"/>
      <path id="Path_78004" data-name="Path 78004" d="M828.56,383.341s3.062-15.031,14.753-13.638c0,0,8.079.555,9.741,5.844v11.691Z" transform="translate(-1992.406 4025.413)"/>
      <path id="Path_78005" data-name="Path 78005" d="M693.471,382.142l-104.11-8.632L576,376.295l.835,18.65.91.11,1.037,28.006,102.16,18.37,10.859-9.186v-30.36l1.39-.816Z" transform="translate(-1793.292 4032.182)" fill="#a0252a"/>
      <path id="Path_78006" data-name="Path 78006" d="M980.974,405.56l-.28,18.928-11.274,5.289-.14-19.765Z" transform="translate(-2080.655 4008.764)" opacity="0.05"/>
      <path id="Path_78007" data-name="Path 78007" d="M976.9,478.94l.137,29.786-10.856,9.186.7-34.518Z" transform="translate(-2078.39 3955.146)" opacity="0.05"/>
      <path id="Path_78008" data-name="Path 78008" d="M582.788,455.078l103.978,12.688.054-2.408L582.71,454.13Z" transform="translate(-1798.195 3973.274)" opacity="0.05"/>
      <path id="Path_78009" data-name="Path 78009" d="M978.031,480.033V478.94l-10.3,4.546V485.9Z" transform="translate(-2079.522 3955.146)" opacity="0.05"/>
      <path id="Path_78010" data-name="Path 78010" d="M575.48,376.295l13.361-2.785,104.11,8.632-11.691,4.452Z" transform="translate(-1792.912 4032.182)" fill="#efc6cd"/>
      <path id="Path_78011" data-name="Path 78011" d="M949.67,407.55l5.109.334-8.467,2.534-4.312-.31Z" transform="translate(-2060.722 4007.31)" opacity="0.1"/>
      <path id="Path_78012" data-name="Path 78012" d="M949.67,406.72l5.109.334-8.467,2.537L942,409.279Z" transform="translate(-2060.722 4007.916)" fill="#fff"/>
      <path id="Path_78013" data-name="Path 78013" d="M1022.32,444.493c.2-.086.415.078.63.118.124.024.251,0,.374.024.25.032.5.2.738.116" transform="translate(-2133.983 3970.717)" fill="#d3dae1"/>
      <path id="Path_78014" data-name="Path 78014" d="M1021.34,445.062c.2-.086.415.075.63.119.124.022.25,0,.374.022.25.035.5.2.738.118" transform="translate(-2133.267 3970.301)" fill="#d3dae1"/>
      <path id="Path_78015" data-name="Path 78015" d="M1019.08,446.2c.2-.086.417.075.633.116.121.024.25,0,.372.024.253.035.5.2.738.116" transform="translate(-2131.615 3969.468)" fill="#d3dae1"/>
      <path id="Path_78016" data-name="Path 78016" d="M867.67,398.21l5.109.337-8.467,2.534L860,400.769Z" transform="translate(-2000.806 4014.134)" opacity="0.1"/>
      <path id="Path_78017" data-name="Path 78017" d="M867.67,397.39l5.109.334-8.467,2.534-4.312-.31Z" transform="translate(-2000.806 4014.733)" fill="#fff"/>
      <path id="Path_78018" data-name="Path 78018" d="M940.32,435.162c.2-.086.415.075.63.119.124.022.25,0,.374.022.25.035.5.2.738.118" transform="translate(-2074.067 3977.535)" fill="#d3dae1"/>
      <path id="Path_78019" data-name="Path 78019" d="M939.34,435.732c.2-.086.415.075.63.116.124.024.25,0,.374.024.25.035.5.2.738.116" transform="translate(-2073.351 3977.118)" fill="#d3dae1"/>
      <path id="Path_78020" data-name="Path 78020" d="M937.08,436.863c.2-.086.417.078.633.118.121.024.25,0,.372.024.253.032.5.2.738.116" transform="translate(-2071.699 3976.292)" fill="#d3dae1"/>
      <path id="Path_78021" data-name="Path 78021" d="M907,402.88l5.112.334-8.467,2.537-4.314-.312Z" transform="translate(-2029.543 4010.722)" opacity="0.1"/>
      <path id="Path_78022" data-name="Path 78022" d="M907,402.06l5.112.334-8.467,2.534-4.314-.312Z" transform="translate(-2029.543 4011.321)" fill="#fff"/>
      <path id="Path_78023" data-name="Path 78023" d="M979.65,439.832c.2-.086.417.075.633.116.121.024.248,0,.372.024.25.032.5.2.738.116" transform="translate(-2102.804 3974.123)" fill="#d3dae1"/>
      <path id="Path_78024" data-name="Path 78024" d="M978.67,440.393c.2-.086.417.078.633.119.121.024.248,0,.372.024.25.032.5.2.738.116" transform="translate(-2102.089 3973.712)" fill="#d3dae1"/>
      <path id="Path_78025" data-name="Path 78025" d="M976.42,441.532c.2-.086.415.075.63.118.124.022.25,0,.374.022.25.035.5.2.738.119" transform="translate(-2100.444 3972.88)" fill="#d3dae1"/>
      <ellipse id="Ellipse_500" data-name="Ellipse 500" cx="46.906" cy="11.225" rx="46.906" ry="11.225" transform="translate(-1277.493 4495.782)" fill="#ed1c24" opacity="0.1"/>
      <path id="Path_78026" data-name="Path 78026" d="M491.758,284.793a36.534,36.534,0,0,0-2.884-9.989l.175-1.724s.038-.862-.019-2.155a9.8,9.8,0,0,1,.315-2.392,4.925,4.925,0,0,0-.708-3.5c-.119-.17.059-3.447-1-5.055s-8.128-4.6-8.128-4.6-.38-.794-.916-1.724l.048-.094a10.126,10.126,0,0,0-1.616-2.179c-.434-.463-.851-.727-1.188-.6a9.7,9.7,0,0,1-.312-1.365c.07.019.143.038.213.051a2.2,2.2,0,0,0,.889.022,2.641,2.641,0,0,0,1.46-1.293,20.607,20.607,0,0,0,3.719-9.1,5.784,5.784,0,0,0-.094-2.009,6.779,6.779,0,0,0-.63-1.468A11.8,11.8,0,0,0,479.3,233a10.126,10.126,0,0,0-4.775-2.615,16.531,16.531,0,0,0-6.167-.461c-.539.062-1.077.151-1.616.186a16.784,16.784,0,0,1-2.049-.035l-3.525-.2-.016-.054-.587-.035a1.486,1.486,0,0,0,.288,1.438,2.455,2.455,0,0,1,.6,1.39,2.841,2.841,0,0,1-.681,1.347,1.3,1.3,0,0,0-.218,1.409.808.808,0,0,0,.143.156,1.775,1.775,0,0,0,1.3.345h.081a8.771,8.771,0,0,0-1.786,5.311,8.931,8.931,0,0,0,4.872,7.913c.051.175.1.355.151.539a16.5,16.5,0,0,1,.566,5.823l-.062.135-.038-.143s-4.153,2.817-5.386,3.563a7.783,7.783,0,0,0-2.532,3.964c-.059.689-2,11.088-2,11.088a25.474,25.474,0,0,0-.975,3.21l-2.48,2.179s-5.117.461-6.6.116l.043.285a22.38,22.38,0,0,0-3.975-.539,4.215,4.215,0,0,0-2.155.288l-.051.024-.04.019a8.539,8.539,0,0,0-2.262.636c-.086.035-.164.07-.24.105l.016-.353-5.537-.285-2.828-.574s-1-.808-1.592-.689-1.826-.689-1.826-.689a4.936,4.936,0,0,0-.91-.566c-.094-.652-.154-1.048-.154-1.048s-2.2-8.731-3.849-13.864a11.817,11.817,0,0,0-3.63-5.852c-.417-.727-.692-1.2-.692-1.2a5.349,5.349,0,0,0-1.425-2.084c-.04-.065-.07-.1-.086-.1a.315.315,0,0,0-.159.024,17.131,17.131,0,0,1-.024-7.713,8.513,8.513,0,0,0,3.108-6.561q0-.057,0-.113v-.116a8.476,8.476,0,0,0-2-5.467l-.092-.1a.709.709,0,0,0,.07-.057,1.443,1.443,0,0,0,.509-1.39,9.52,9.52,0,0,0-.733-1.414,9.156,9.156,0,0,1-.3-1.153,3.555,3.555,0,0,0-.848-1.479l.04.108a5.118,5.118,0,0,0-4.506-1.514c-1.215.194-2.346.759-3.566.935-.875.124-1.767.043-2.647.132a6.87,6.87,0,0,0-2.348.679,1.347,1.347,0,0,0-.5.366,1.972,1.972,0,0,0-.248.692c-.3,1.091-1.247,1.869-1.934,2.779a6.5,6.5,0,0,0-1.3,3.593,2.812,2.812,0,0,0,.094.983c.059.191.151.372.194.566a3.882,3.882,0,0,1-.326,1.769,3.445,3.445,0,0,0,.191,2.246c1.064,2.381,4.557,3.175,5.284,5.675a6.952,6.952,0,0,0,1.748.539c.048.248.092.5.127.751a.2.2,0,0,0-.046.027,5.356,5.356,0,0,0-1.177,2.693l-.113.092c-.385.318-1.7,1.384-2.892,2.206-1.414.978-3.77,4.253-5.419,5.23s-3.006,7-2.65,9.192,1.826,8.33,1.236,10.571.883,12.467.883,12.467a15.057,15.057,0,0,1,2.887.856l-.03.447-.089,1.347s-2.669,9.652-1.648,17.083-.471,8.2-.471,8.2.312,3.294-.471,4.444a9.562,9.562,0,0,0-.943,3.676s-.078,5.669.078,7.272.234,4.522-.315,5.211-1.57,5.206-1.492,6.585-1.963,4.522-.865,8.58-3.232,4.137-3.232,4.137.552,6.194,1.729,7.966l.172.253c-.03.1-.059.21-.092.326-.444,1.616-1.053,4.166-.63,4.783.628.921.943.765.943.765l.234,4.137s4.713,3.983,8.327,3.832,2.906-3.832,2.906-3.832l-3.078-7.983-.105-.269,3.42-6.464s.943-2.833,1.177-3.83,1.514-4.527,1.514-4.527,3.232-7.659,3.3-8.58.315-5.9.943-6.895a63.794,63.794,0,0,0,2.357-6.733l.043.038a2.27,2.27,0,0,1,.587,2.26,18.053,18.053,0,0,0-.159,4.441,30.21,30.21,0,0,1-.471,3.832c-.315,1.3-.391,11.95.159,14.476a40.986,40.986,0,0,1,.4,7.242c-.369,1.522-.692,3.412-.092,3.636,1.023.385,6.208.307,6.208.307s2.2-.768,5.184,1.915,12.173-.765,12.173-.765,2.828-.768-2.75-2.987a47.428,47.428,0,0,1-8.047-3.684c.038-.073.078-.145.113-.224,0,0-2.278-2.155-.393-5.973a16.634,16.634,0,0,0,1.807-7.048l.315-12.871-.943-17.086-.73-17.931.129-.043c.124,3.3.768,11.144,4.137,9.623,4.242-1.915.628-6.895.628-6.895l-1.9-3.711.568-.194-2.13-6.884a15.523,15.523,0,0,1-.081-4.059,16.086,16.086,0,0,0-.048-2.37,42.5,42.5,0,0,1,5.941-.886c.566.137,3.73.164,4.974.17-.407.318-.733.633-.733.633l5.066,3.41s1.718-.94,2.076-1.936a2.235,2.235,0,0,0,.948-.506c.054,1.177.366,2.451,1.454,2.48a1.884,1.884,0,0,0,.792-.156l8.284-1.64-.711,4.441.5.881c-.25,3.746-.539,7.724-.792,11.222l-.116.765.059.013c-.393,5.386-.708,9.466-.708,9.466a4.963,4.963,0,0,1,2.066-2.076l.054,7.993s.415,12.639.415,14.363.057,5.572.057,5.572.886,4.71,1.414,6.262.943,8.618.943,8.618,1.239,1.953.708,2.693,2.063,2.354,2.063,2.354-1.651,2.241-1.769,3.735c-.013.172.156.355.463.539-.1.078-.2.156-.307.232a5.38,5.38,0,0,1-3.571.722c-4.6-.4-7.837,3.849-5.009,4.71s11.311,1.034,11.311,1.034,2.569-1.6,4.578-.881c-.03,1.686.054,3.232.067,3.436l-.024.019a18.681,18.681,0,0,1-5.747,3.687c-3.232,1.091-3.948,5.516.234,6.089s10.309-.689,10.309-.689a19,19,0,0,1,5.6-2.871c2.416-.517,4.479-1.667,4.067-3.046-.269-.881-.961-3.189-1.43-4.74q-.04-.14-.081-.269c.073-.162.145-.329.213-.5,0,0-1.236-6.434-.234-8.042s.471-17.7.471-17.7-1.71-4.077-.824-6.547-1.414-5.976-1.414-5.976a109.176,109.176,0,0,1,.924-10.942l.089-.485a22.066,22.066,0,0,0,3.286-1.268s.59-8.85.943-10.859c.035-.189.083-.493.143-.889l.269-1.419h0l.318-1.616h0l1.077-5.508,1.944-2.515,5.009-5.117S492.348,289.908,491.758,284.793Zm-77.251-31.6-.038.027a.463.463,0,0,1-.013-.059.243.243,0,0,0,.051.032ZM464,259.467l-.194.423.708-.706-.961,1.077.323-.679Zm-4.783,9.884c-.186.493-.385,1.026-.593,1.581L459,269.8Z" transform="translate(-1670.255 4130.29)" fill="url(#linear-gradient)"/>
      <path id="Path_78027" data-name="Path 78027" d="M595.654,441.984s-.66,4.393,1.32,4.449,3.3-3.388,3.3-3.388l-.808-2.755Z" transform="translate(-1822.148 3973.77)" fill="#585b8a"/>
      <path id="Path_78028" data-name="Path 78028" d="M595.654,441.984s-.66,4.393,1.32,4.449,3.3-3.388,3.3-3.388l-.808-2.755Z" transform="translate(-1822.148 3973.77)" opacity="0.2"/>
      <path id="Path_78029" data-name="Path 78029" d="M405.8,759.323c-3.523.154-8.117-3.827-8.117-3.827l-.229-4.134s-.3.154-.918-.765c-.412-.617.18-3.173.614-4.78.21-.786.382-1.347.382-1.347l7.729,2.068.369.978,3,7.977S409.317,759.169,405.8,759.323Z" transform="translate(-1676.629 3751.511)"/>
      <path id="Path_78030" data-name="Path 78030" d="M500.03,732.293s-8.955,3.445-11.85.765-5.052-1.915-5.052-1.915-5.052.078-6.049-.307c-.587-.224-.269-2.138.1-3.663.248-1.053.517-1.923.517-1.923s8.8-2.987,10.18-1.15a6.6,6.6,0,0,0,1.468,1.4c1.594,1.153,4.086,2.2,8.026,3.805C502.785,731.525,500.03,732.293,500.03,732.293Z" transform="translate(-1735.347 3766.831)"/>
      <path id="Path_78031" data-name="Path 78031" d="M527.319,496.35l2.448,4.9s3.523,4.977-.611,6.889-4.056-11.02-4.056-11.02Z" transform="translate(-1770.672 3932.808)" fill="#f4c6c6"/>
      <path id="Path_78032" data-name="Path 78032" d="M495.25,338.61s2.68,1.225,4.288,6.353,3.752,13.856,3.752,13.856,1.454,9.873,1.223,12.324a15.889,15.889,0,0,0,.078,4.056l2.066,6.889-4.134,1.454L496.168,359.2Z" transform="translate(-1748.862 4048.066)" fill="#dce6f2"/>
      <path id="Path_78033" data-name="Path 78033" d="M495.25,338.61s2.68,1.225,4.288,6.353,3.752,13.856,3.752,13.856,1.454,9.873,1.223,12.324a15.889,15.889,0,0,0,.078,4.056l2.066,6.889-4.134,1.454L496.168,359.2Z" transform="translate(-1748.862 4048.066)" fill="#fff" opacity="0.705"/>
      <path id="Path_78034" data-name="Path 78034" d="M407.28,746.556l.369.978-.452.865c-1.761.765-6.124.153-6.124.153s-.808-1.026-1.912-2.715c.21-.786.382-1.347.382-1.347Z" transform="translate(-1678.651 3751.496)" opacity="0.1"/>
      <path id="Path_78035" data-name="Path 78035" d="M490.7,725.861c-2.233,5.058-9.822,3.181-11.931,2.548-.347-.105-.539-.175-.539-.175s.013-.412.019-1.061c.248-1.053.517-1.923.517-1.923s8.8-2.987,10.18-1.15a6.6,6.6,0,0,0,1.468,1.4A2.6,2.6,0,0,0,490.7,725.861Z" transform="translate(-1736.426 3766.831)" opacity="0.1"/>
      <path id="Path_78036" data-name="Path 78036" d="M427.761,527.492c-1.837,3.824.385,5.971.385,5.971-2.233,5.055-9.822,3.181-11.931,2.545-.347-.1-.539-.172-.539-.172a46.628,46.628,0,0,0-.382-7.81c-.536-2.526-.461-13.164-.153-14.465a30.8,30.8,0,0,0,.458-3.83,18.66,18.66,0,0,1,.154-4.438,2.292,2.292,0,0,0-.571-2.257l-.04-.04a63.732,63.732,0,0,1-2.3,6.733c-.614.991-.84,5.971-.918,6.889s-3.216,8.575-3.216,8.575-1.223,3.52-1.452,4.514-1.15,3.83-1.15,3.83l-3.69,7.121c-1.761.765-6.124.154-6.124.154s-.84-1.077-1.99-2.833-1.683-7.958-1.683-7.958,4.209-.078,3.138-4.134.918-7.2.843-8.575.918-5.893,1.454-6.582.458-3.6.3-5.206-.075-7.272-.075-7.272a9.723,9.723,0,0,1,.918-3.673c.765-1.147.461-4.441.461-4.441s1.452-.765.458-8.19,1.616-17.069,1.616-17.069l.089-1.347.14-2.181s21.893-1.379,23.654.3a5.806,5.806,0,0,1,1.118,1.6A15.943,15.943,0,0,1,428,467.329l.918,23.194.918,17.069-.307,12.86A17.1,17.1,0,0,1,427.761,527.492Z" transform="translate(-1673.872 3958.772)" fill="#7c6141"/>
      <path id="Path_78037" data-name="Path 78037" d="M481.718,538.42l-2.3,49.754-2.758,4.535c-.347-.1-.539-.172-.539-.172a46.624,46.624,0,0,0-.382-7.81c-.536-2.526-.461-13.164-.154-14.465a30.8,30.8,0,0,0,.458-3.83,18.661,18.661,0,0,1,.154-4.438,2.292,2.292,0,0,0-.571-2.257l.038-.269Z" transform="translate(-1734.32 3902.068)" opacity="0.1"/>
      <path id="Path_78038" data-name="Path 78038" d="M406.731,732.022s5.971-2.373,6.889-1.616-7.04,1.912-7.04,1.912Z" transform="translate(-1684.072 3761.896)" opacity="0.1"/>
      <path id="Path_78039" data-name="Path 78039" d="M501.526,713.5c-.229.078-6.046,2.155-5.51,4.363S501.526,713.5,501.526,713.5Z" transform="translate(-1749.396 3774.14)" opacity="0.1"/>
      <path id="Path_78040" data-name="Path 78040" d="M449.07,285.348s1.95,4.708.918,7.121,11.136,6.544,11.136,6.544-3.558-9.186-.113-14.355S449.07,285.348,449.07,285.348Z" transform="translate(-1715.119 4089.044)" fill="#f4c6c6"/>
      <path id="Path_78041" data-name="Path 78041" d="M663.874,773.783c-2.354.517-5.454,2.871-5.454,2.871s-5.971,1.263-10.048.689-3.385-5-.229-6.087a18.325,18.325,0,0,0,5.6-3.682c.517-.477.824-.808.824-.808L666,764.47s.186.638.444,1.519c.458,1.554,1.134,3.859,1.392,4.737C668.237,772.119,666.228,773.266,663.874,773.783Z" transform="translate(-1858.678 3736.897)"/>
      <path id="Path_78042" data-name="Path 78042" d="M638.259,742.677s-4.823.517-6.833-.63-4.88.689-4.88.689-8.268-.172-11.023-1.034.4-5.117,4.88-4.708a5.145,5.145,0,0,0,3.482-.722A3.668,3.668,0,0,0,625.4,734l9.7.574,1.347,3.437Z" transform="translate(-1835.99 3759.161)"/>
      <path id="Path_78043" data-name="Path 78043" d="M662.076,739.578s-11.268-1.842-12.706-3.3A3.668,3.668,0,0,0,650.886,734l9.7.574,1.347,3.437Z" transform="translate(-1861.475 3759.161)" opacity="0.1"/>
      <path id="Path_78044" data-name="Path 78044" d="M634.52,513.306l.116,16.819s.4,12.631.4,14.355.057,5.567.057,5.567.862,4.708,1.379,6.259.918,8.618.918,8.618,1.206,1.953.689,2.693,2.009,2.354,2.009,2.354-1.616,2.241-1.721,3.733,12.857,3.612,12.857,3.612l-5.05-51.782-4.021-12.973Z" transform="translate(-1850.624 3920.963)" fill="#575988"/>
      <path id="Path_78045" data-name="Path 78045" d="M634.52,513.306l.116,16.819s.4,12.631.4,14.355.057,5.567.057,5.567.862,4.708,1.379,6.259.918,8.618.918,8.618,1.206,1.953.689,2.693,2.009,2.354,2.009,2.354-1.616,2.241-1.721,3.733,12.857,3.612,12.857,3.612l-5.05-51.782-4.021-12.973Z" transform="translate(-1850.624 3920.963)" opacity="0.1"/>
      <path id="Path_78046" data-name="Path 78046" d="M688.706,766c-3.752,8.944-12.674,2.041-12.674,2.041s0-.172-.022-.469c.517-.477.824-.808.824-.808l11.427-2.3S688.447,765.122,688.706,766Z" transform="translate(-1880.94 3736.897)" opacity="0.1"/>
      <path id="Path_78047" data-name="Path 78047" d="M664.891,576.048c-3.676,9.426-12.8,2.354-12.8,2.354s-.288-4.88.288-7.118-.633-8.958-.633-8.958-.689-5.971-1.32-7.347a13.091,13.091,0,0,1-.574-4.363,8.33,8.33,0,0,0-.288-3.331,22.423,22.423,0,0,1-.808-4.363,46.036,46.036,0,0,0-.517-6.946l-1.78-8.887-3.216-18.2,1-.172,18-3.156s3.388,17.236,2.238,19a7.411,7.411,0,0,0-.646,2.33c-.657,3.911-.9,10.932-.9,10.932s2.238,3.5,1.379,5.971.808,6.544.808,6.544.517,16.076-.461,17.683S664.891,576.048,664.891,576.048Z" transform="translate(-1856.996 3926.078)" fill="#3e4279"/>
      <path id="Path_78048" data-name="Path 78048" d="M680.857,299.847s-16.3,11.481-12.631,5.739c1.979-3.092,1.616-7.029.84-10a23.6,23.6,0,0,0-1.616-4.387s13.854-5.893,12.017-.611a9.894,9.894,0,0,0-.539,3.835A10.234,10.234,0,0,0,680.857,299.847Z" transform="translate(-1874.685 4084.763)" fill="#f4c6c6"/>
      <path id="Path_78049" data-name="Path 78049" d="M585.346,426.14s-6.889-1.99-8.036-.038.345,6.237,2.424,6.927,6.851-2.335,6.851-2.335Z" transform="translate(-1808.53 3984.764)" fill="#d28690"/>
      <path id="Path_78050" data-name="Path 78050" d="M610.716,416l-2.871,2.642s-5,.458-6.431.113c0,0,1.322,8.842-.574,9.932l11.6-2.354Z" transform="translate(-1826.015 3991.518)" fill="#585b8a"/>
      <path id="Path_78051" data-name="Path 78051" d="M610.716,416l-2.871,2.642s-5,.458-6.431.113c0,0,1.322,8.842-.574,9.932l11.6-2.354Z" transform="translate(-1826.015 3991.518)" fill="#3e4279" opacity="0.998"/>
      <path id="Path_78052" data-name="Path 78052" d="M453.868,250.784a8.618,8.618,0,0,1-8.618,8.618c-4.422-2.125-8.618-3.854-8.618-8.618a8.618,8.618,0,1,1,17.223,0Z" transform="translate(-1706.026 4118.785)" opacity="0.1"/>
      <path id="Path_78053" data-name="Path 78053" d="M453.971,250.905a8.6,8.6,0,1,1-1.95-5.448A8.6,8.6,0,0,1,453.971,250.905Z" transform="translate(-1706.128 4118.432)" fill="#f4c6c6"/>
      <path id="Path_78054" data-name="Path 78054" d="M451.727,463.284a19.481,19.481,0,0,1-2.669,1.384s-4.363-.633-4.993.113-6.194,1.034-6.194,1.034-8.5-.4-9.76-1.492a5.17,5.17,0,0,0-1.29-.765l.14-2.181s21.893-1.379,23.654.3a5.806,5.806,0,0,1,1.112,1.6Z" transform="translate(-1698.861 3958.75)" opacity="0.1"/>
      <path id="Path_78055" data-name="Path 78055" d="M439.474,350.222c-.172.975-3.733,2.467-3.733,2.467s-4.363-.63-4.993.116-6.194,1.034-6.194,1.034-8.5-.4-9.76-1.495a10.957,10.957,0,0,0-4.077-1.616s-1.435-10.218-.859-12.456-.862-8.384-1.207-10.565.975-8.209,2.583-9.184,3.905-4.25,5.281-5.225c1.161-.821,2.443-1.885,2.817-2.206l.11-.092a5.435,5.435,0,0,1,1.15-2.693c.918-.913,9.356,5.8,9.356,5.8s.059.517.633-.458c.129-.218,1.242,1.387,1.435,2.066,0,0,4.592,8.039,4.88,9.7s1.492,7.061,1.721,8.381c.059.339.156,1.53.269,3.124.022.312.04.644.065.988.17,2.645.353,6.022.463,8.575,0,.291.024.571.032.84A28.6,28.6,0,0,1,439.474,350.222Z" transform="translate(-1685.545 4070.269)" fill="#fbfbfd"/>
      <path id="Path_78056" data-name="Path 78056" d="M415,387.21s3.156,3.846,4.191,3.846S415,387.21,415,387.21Z" transform="translate(-1690.225 4012.554)" opacity="0.1"/>
      <path id="Path_78057" data-name="Path 78057" d="M427.367,417.91s-5.168,5.626-4.479,6.66S427.367,417.91,427.367,417.91Z" transform="translate(-1695.942 3990.122)" opacity="0.1"/>
      <path id="Path_78058" data-name="Path 78058" d="M425.62,435.806s5.925-6.488,6.194-8.726Z" transform="translate(-1697.984 3983.422)" opacity="0.1"/>
      <path id="Path_78059" data-name="Path 78059" d="M453.33,442.093s6.833-3.617,7.406-6.488S453.33,442.093,453.33,442.093Z" transform="translate(-1718.232 3977.593)" opacity="0.1"/>
      <path id="Path_78060" data-name="Path 78060" d="M482.948,329.549,482,331.843l1.578.746,1.551,4.336s4.277,8.554,4.1,13a78.818,78.818,0,0,0,.776,11.136l2.467-.458-1.163-13.086a18.877,18.877,0,0,0-1.5-5.874c-1.971-4.514-5.639-12.846-5.871-12.846-.315,0-.094.116-.094.116Z" transform="translate(-1739.18 4055.234)" opacity="0.1"/>
      <path id="Path_78061" data-name="Path 78061" d="M483.8,328.7l-.948,2.3,1.581.746,1.549,4.336s4.277,8.553,4.1,13a78.815,78.815,0,0,0,.776,11.136l2.47-.458-1.166-13.086a18.8,18.8,0,0,0-1.5-5.874c-1.971-4.516-5.64-12.846-5.868-12.846-.318,0-.1.116-.1.116Z" transform="translate(-1739.801 4055.855)" fill="#ed1c24"/>
      <path id="Path_78062" data-name="Path 78062" d="M574.682,434.315c-1.2-.092-4.083-1.549-5.227-2.155l-.485-.269.059-4.446a7.819,7.819,0,0,1,.878-.444c1.53-.668,4.667-1.575,6.24,1.347C578.27,432.265,576.2,434.417,574.682,434.315Z" transform="translate(-1802.728 3983.976)" fill="#ffd6d6"/>
      <path id="Path_78063" data-name="Path 78063" d="M451.9,245.378a1.274,1.274,0,0,1-.4.164c-1,.218-2.136-.641-2.992-.089a2.168,2.168,0,0,0-.714,1.662q-.183,1.616-.366,3.21a3.963,3.963,0,0,1-.237,1.107,2.777,2.777,0,0,1-2.642,1.406,1.575,1.575,0,0,1-1.139-.377c-.186-.189-.285-.452-.49-.625-1.347-1.128-1.756,1.637-1.4,2.424.571,1.285,2.6,2.523,1.748,4.156a1.557,1.557,0,0,1-.625.628,8.618,8.618,0,1,1,9.259-13.665Z" transform="translate(-1706.002 4118.51)" opacity="0.1"/>
      <path id="Path_78064" data-name="Path 78064" d="M435.164,241.262c.2.17.3.434.49.622a1.578,1.578,0,0,0,1.139.377,2.763,2.763,0,0,0,2.639-1.409,3.834,3.834,0,0,0,.24-1.1l.366-3.21a2.159,2.159,0,0,1,.714-1.662c.856-.539,1.993.307,2.992.089a1.462,1.462,0,0,0,1.077-1.686,9.488,9.488,0,0,0-.711-1.411,9.236,9.236,0,0,1-.294-1.15c-.557-2.09-3.011-3.264-5.144-2.914-1.185.2-2.286.762-3.474.935-.851.124-1.721.043-2.58.135a6.512,6.512,0,0,0-2.289.676,1.329,1.329,0,0,0-.485.366,2.022,2.022,0,0,0-.242.689,9.206,9.206,0,0,1-1.885,2.779,6.623,6.623,0,0,0-1.277,3.585,2.875,2.875,0,0,0,.092.983c.057.189.145.372.189.566a3.94,3.94,0,0,1-.318,1.767,3.533,3.533,0,0,0,.189,2.246c1.034,2.378,4.441,3.173,5.149,5.669a5.656,5.656,0,0,0,2,.539,1.933,1.933,0,0,0,1.767-.9c.848-1.616-1.177-2.871-1.748-4.153C433.406,242.894,433.807,240.13,435.164,241.262Z" transform="translate(-1698.482 4129.075)"/>
      <path id="Path_78065" data-name="Path 78065" d="M679.51,290.585a9.894,9.894,0,0,0-.539,3.835c-.415.353-.867-.7-1.347-.431-1.314.759-2.833,2.567-4.46,2.567a8.932,8.932,0,0,1-4.059-.972,23.609,23.609,0,0,0-1.616-4.387S681.346,285.3,679.51,290.585Z" transform="translate(-1874.715 4084.763)" opacity="0.1"/>
      <path id="Path_78066" data-name="Path 78066" d="M673.175,259.458a8.957,8.957,0,1,1-8.957-8.957A8.957,8.957,0,0,1,673.175,259.458Z" transform="translate(-1865.778 4112.446)" fill="#f4c6c6"/>
      <path id="Path_78067" data-name="Path 78067" d="M660.334,324.622s-1.686,1.837-1.915,1.988-5.117,20.737-5.2,20.977-5.82,18.828-5.82,18.828l-9.186,4.516.768-22.736,6.733-18.75s2.222-2.526,2.909-3.445,9.262-6.431,9.262-6.431l1.465,3.019Z" transform="translate(-1853.32 4061.978)" fill="#f0f3f7"/>
      <path id="Path_78068" data-name="Path 78068" d="M686.732,324.3l-10.563,7.562-.17-4.153c.689-.918,9.262-6.429,9.262-6.429Z" transform="translate(-1880.933 4060.728)" opacity="0.1"/>
      <path id="Path_78069" data-name="Path 78069" d="M687.6,322.589l-10.563,7.562L676.87,326c.689-.921,9.262-6.431,9.262-6.431Z" transform="translate(-1881.568 4061.978)" fill="#f0f3f7"/>
      <path id="Path_78070" data-name="Path 78070" d="M640.261,336.59l.353,1.848-2.362,2.4,1.885-4.22s-4.04,2.814-5.252,3.56a7.667,7.667,0,0,0-2.47,3.962c-.046.689-1.953,11.08-1.953,11.08s-1.435,3.846-1.031,4.937-2.182,35.48-2.182,35.48a5.117,5.117,0,0,1,3.453-2.647l-.921-20.323s1.12-13.52,1.177-13.692l2.612-8.009Z" transform="translate(-1845.312 4049.542)" fill="#3e4279"/>
      <path id="Path_78071" data-name="Path 78071" d="M644.316,344.3l-.183,3.77s-2.556,8.066-3.415,9.386-3.474,9.186-3.474,9.186l-1.473,13.665-2.526,1.15L632,379.166l2.068-13.2s3.9-11.136,4.479-12.286l2.879-6.065Z" transform="translate(-1848.783 4043.908)" opacity="0.1"/>
      <path id="Path_78072" data-name="Path 78072" d="M643.434,343.45l-.18,3.77s-2.556,8.066-3.418,9.386-3.472,9.186-3.472,9.186L634.9,379.455l-2.526,1.147-1.263-2.295,2.068-13.2s3.9-11.139,4.476-12.286l2.9-6.057Z" transform="translate(-1848.132 4044.529)" fill="#663d5c"/>
      <path id="Path_78073" data-name="Path 78073" d="M566.31,446.912l4.937,3.418s3.482-1.953,1.454-3.216a8.992,8.992,0,0,0-4.479-1.454C567.57,445.66,566.31,446.912,566.31,446.912Z" transform="translate(-1800.784 3969.846)" fill="#d28690"/>
      <path id="Path_78074" data-name="Path 78074" d="M579.028,425.618a.759.759,0,0,0-.358.649c0,1.048.119,3.822,1,2.569,1.077-1.532.881-2.909,2.526-1.915a9.7,9.7,0,0,1,2.639,2.424l-.458-3.291S580.991,424.384,579.028,425.618Z" transform="translate(-1809.815 3984.822)" fill="#d28690"/>
      <path id="Path_78075" data-name="Path 78075" d="M666.841,524.523a7.414,7.414,0,0,0-.646,2.33,19.46,19.46,0,0,1-17.433-3.364,87.884,87.884,0,0,1-2.181-9.184,29.929,29.929,0,0,1,.027-5.629l18-3.156S667.991,522.743,666.841,524.523Z" transform="translate(-1859.35 3926.107)" opacity="0.1"/>
      <path id="Path_78076" data-name="Path 78076" d="M677.133,337.065a17.848,17.848,0,0,0-.285,4.535l-4.134,19.52s-2.009,15.041-2.354,17.051-.918,10.851-.918,10.851a19.446,19.446,0,0,1-20.737-2.066,88.031,88.031,0,0,1-2.181-9.186c-.576-3.41,1.12-17.069,1.923-23.137.24-1.8.4-2.927.4-2.927l3.014-11.2s3.7-9.445,5.082-12.2,6.916-8.944,6.916-8.944c.687-.436,1.786,1.1,2.6,2.507.617,1.061,1.077,2.047,1.077,2.047s6.889,2.984,7.921,4.578.862,4.88.978,5.052A5.06,5.06,0,0,1,677.133,337.065Z" transform="translate(-1859.308 4062.182)" fill="#3e4279"/>
      <path id="Path_78077" data-name="Path 78077" d="M667.073,330.741s.517,3.043-.808,3.962c-1.279.889-10.8,19.614-11.395,20.783.24-1.8.4-2.93.4-2.93l3.014-11.193s3.706-9.445,5.082-12.2,6.919-8.944,6.919-8.944c.687-.436,1.783,1.1,2.6,2.507C671.654,325.279,669.087,330.11,667.073,330.741Z" transform="translate(-1865.493 4061.561)" opacity="0.1"/>
      <path id="Path_78078" data-name="Path 78078" d="M666.208,329.891s.514,3.043-.808,3.962-10.8,19.612-11.4,20.78c.24-1.8.4-2.927.4-2.927l3.014-11.2s3.7-9.445,5.082-12.2,6.916-8.944,6.916-8.944c.687-.436,1.786,1.1,2.6,2.507C670.789,324.426,668.22,329.26,666.208,329.891Z" transform="translate(-1864.858 4062.182)" fill="#3e4279"/>
      <path id="Path_78079" data-name="Path 78079" d="M607.947,410.875l-3.24,16.857v0l-.31,1.613v0l-.7,3.628-2.976-.63-1.387-.294-19.194-4.067-1.411-.3-3.221-.681.63-4.185.261-1.74,2.324-15.432Z" transform="translate(-1792.934 4008.698)" fill="#6c63ff"/>
      <path id="Path_78080" data-name="Path 78080" d="M666.707,511.92s-7.635,2.755-5.971,6.027,12.343-2.526,12.343-2.526Z" transform="translate(-1869.606 3921.431)" fill="#d28690"/>
      <path id="Path_78081" data-name="Path 78081" d="M703.8,599.1c0,.229.288,3.159,1.435,4.191S703.8,599.1,703.8,599.1Z" transform="translate(-1901.246 3857.73)" opacity="0.1"/>
      <path id="Path_78082" data-name="Path 78082" d="M675.24,637.68s1.376,3.789,6.83,5.341S675.24,637.68,675.24,637.68Z" transform="translate(-1880.377 3829.54)" opacity="0.1"/>
      <path id="Path_78083" data-name="Path 78083" d="M677.9,259.521a8.955,8.955,0,0,1-4.489,7.764,4.766,4.766,0,0,1-1.347-1.123,1.74,1.74,0,0,1-.461-1.686c.188-.455.687-.743.808-1.215a1.788,1.788,0,0,0-.043-.867c-.1-.444-.194-.889-.291-1.33-.083-.377-.232-.821-.606-.913s-.687.221-.98.452a3.074,3.074,0,0,1-2.963.487c-.864-.466-.622-2.025-.762-2.868a.5.5,0,0,0-.189-.38.787.787,0,0,0-.391-.027,1.124,1.124,0,0,1-.975-.864,7.436,7.436,0,0,1-.156-1.387,1.547,1.547,0,0,0-.619-1.2,1.915,1.915,0,0,0-1.021-.167l-1.689.019a8.958,8.958,0,0,1,16.159,5.311Z" transform="translate(-1870.506 4112.383)" opacity="0.1"/>
      <path id="Path_78084" data-name="Path 78084" d="M666.489,254.051c.294-.232.617-.539.98-.45s.52.539.6.91l.291,1.328a1.8,1.8,0,0,1,.046.87c-.137.474-.633.759-.824,1.215a1.741,1.741,0,0,0,.461,1.683,4.848,4.848,0,0,0,2.771,1.656,2.035,2.035,0,0,0,.865.019,2.559,2.559,0,0,0,1.422-1.29,20.892,20.892,0,0,0,3.625-9.095,5.835,5.835,0,0,0-.092-2.006,6.735,6.735,0,0,0-.614-1.468,11.851,11.851,0,0,0-1.732-2.62,9.836,9.836,0,0,0-4.654-2.61,15.76,15.76,0,0,0-6.008-.471c-.539.062-1.056.151-1.586.186a15.96,15.96,0,0,1-2-.032l-3.964-.237a1.54,1.54,0,0,0,.269,1.438,2.581,2.581,0,0,1,.582,1.39,2.859,2.859,0,0,1-.665,1.347,1.326,1.326,0,0,0-.213,1.409,1.506,1.506,0,0,0,1.347.442l2-.022a1.909,1.909,0,0,1,1.015.175,1.551,1.551,0,0,1,.619,1.2,7.929,7.929,0,0,0,.156,1.387,1.121,1.121,0,0,0,.975.865.727.727,0,0,1,.391.03.5.5,0,0,1,.189.377c.14.843-.119,2.4.762,2.868A3.1,3.1,0,0,0,666.489,254.051Z" transform="translate(-1866.262 4118.935)"/>
      <path id="Path_78085" data-name="Path 78085" d="M691.4,353.4a4.39,4.39,0,0,0-4.619,2.949c-1.077,3.068-2.874,8.6-2.424,10.789.633,3.1,1.379,8.268,1.379,8.268s3.272,1.885,1.616,3.787a10.725,10.725,0,0,0-2.125,4.595,4.775,4.775,0,0,0-2.583,2.871c-.458,1.953-3.56,4.648-3.56,4.648l-4.648,4.651s7.692,7.81,9.243,8.209l4.764-5.569,5.626-7.463,4.88-5.117s1.147-2.693.574-7.81a37.377,37.377,0,0,0-2.814-9.989l.172-1.724S697.413,354.149,691.4,353.4Z" transform="translate(-1879.793 4037.275)" opacity="0.1"/>
      <path id="Path_78086" data-name="Path 78086" d="M693.112,353.4a4.39,4.39,0,0,0-4.613,2.949c-1.077,3.067-2.874,8.6-2.424,10.789.63,3.1,1.376,8.268,1.376,8.268s3.272,1.885,1.616,3.787a10.7,10.7,0,0,0-2.122,4.595,4.784,4.784,0,0,0-2.585,2.871c-.46,1.953-3.558,4.648-3.558,4.648l-4.651,4.651s7.692,7.81,9.243,8.209l4.764-5.569,5.613-7.463,4.88-5.117s1.15-2.693.574-7.81a37.542,37.542,0,0,0-2.812-9.989l.172-1.724S699.12,354.15,693.112,353.4Z" transform="translate(-1881.042 4037.273)" fill="#3e4279"/>
      <path id="Path_78087" data-name="Path 78087" d="M721.28,418.34s4.88,5.968,6.948,4.648S721.28,418.34,721.28,418.34Z" transform="translate(-1914.018 3989.808)" opacity="0.1"/>
      <path id="Path_78088" data-name="Path 78088" d="M728.1,401.28c.517.172,4.767,6.087,6.948,5.386S728.1,401.28,728.1,401.28Z" transform="translate(-1919.001 4002.274)" opacity="0.1"/>
      <path id="Path_78089" data-name="Path 78089" d="M732.58,439a3.2,3.2,0,0,0,3.789,2.927C739.87,441.467,732.58,439,732.58,439Z" transform="translate(-1922.275 3974.712)" opacity="0.1"/>
      <path id="Path_78090" data-name="Path 78090" d="M615.883,301.83l-1.893,4.22,2.365-2.4Z" transform="translate(-1821.05 4084.558)" opacity="0.1"/>
      <path id="Path_78091" data-name="Path 78091" d="M615.883,300.98l-1.893,4.22,2.365-2.4Z" transform="translate(-1821.05 4085.178)" fill="#f0f3f7"/>
      <path id="Path_78092" data-name="Path 78092" d="M581.852,469.855l-1.411-.3-2.591-4.867.261-1.74Z" transform="translate(-1794.643 3966.83)" opacity="0.3"/>
      <path id="Path_78093" data-name="Path 78093" d="M669.35,487.65l-.31,1.613v0l-3.673,3-1.387-.294Z" transform="translate(-1857.577 3948.782)" opacity="0.3"/>
      <path id="Path_78094" data-name="Path 78094" d="M447.935,373.559c-.711.118-1.4.226-2.031.307-3.5.461-11.828-3.673-11.828-3.673s-10.161-8.5-13.089-16.533,3.5-9.243,3.5-9.243c2.424-1.379,7.694,2.467,8.44,3.1a4.794,4.794,0,0,1,1.32,3.272c-.059,1.034,1.724,2.354,1.724,2.354s3.043,5.281,3.789,5.855a3,3,0,0,1,1.147,2.068c.229.978,2.238,1.78,3.1,1.721s1.885.288,1.885.746c0,.369.843.552,1.535.611C447.633,367.087,447.835,370.944,447.935,373.559Z" transform="translate(-1694.041 4044.04)" opacity="0.1"/>
      <path id="Path_78095" data-name="Path 78095" d="M449.152,370.227c-.539.086-1.056.164-1.54.229-3.5.461-11.826-3.673-11.826-3.673s-10.161-8.5-13.089-16.533,3.5-9.243,3.5-9.243c2.424-1.379,7.692,2.467,8.438,3.1a4.809,4.809,0,0,1,1.322,3.272c-.057,1.034,1.721,2.354,1.721,2.354s3.043,5.281,3.789,5.855a3.009,3.009,0,0,1,1.15,2.068c.232.978,2.238,1.777,3.1,1.721s1.885.288,1.885.746c0,.269.479.45,1.013.539.022.312.04.644.065.988C448.859,364.3,449.042,367.674,449.152,370.227Z" transform="translate(-1695.29 4046.531)" opacity="0.1"/>
      <path id="Path_78096" data-name="Path 78096" d="M569.907,428.84l-.218,5.16h-.234l-.485-.269.059-4.446A7.814,7.814,0,0,1,569.907,428.84Z" transform="translate(-1802.728 3982.136)" opacity="0.1"/>
      <path id="Path_78097" data-name="Path 78097" d="M424.488,342.708s-6.429,1.207-3.5,9.243,13.089,16.536,13.089,16.536,8.325,4.131,11.828,3.673,8.839-1.664,9.528-1.492,5.341.172,5.341.172l.229-5.386-5.386-.288-2.755-.574s-.978-.808-1.551-.689-1.777-.689-1.777-.689a3.432,3.432,0,0,0-1.616-.746c-.695,0-2.009-.172-2.009-.63s-1.034-.808-1.885-.746-2.884-.746-3.121-1.734a3,3,0,0,0-1.147-2.066c-.746-.574-3.789-5.858-3.789-5.858s-1.78-1.32-1.724-2.351a4.818,4.818,0,0,0-1.32-3.275C432.174,345.175,426.9,341.332,424.488,342.708Z" transform="translate(-1694.041 4045.287)" fill="#fff"/>
      <path id="Path_78098" data-name="Path 78098" d="M492.19,412.15s-2.47,2.47-1.839,2.927Z" transform="translate(-1745.207 3994.331)" opacity="0.1"/>
      <path id="Path_78099" data-name="Path 78099" d="M500.476,419.4s-3.216,2.47-2.354,2.642S500.476,419.4,500.476,419.4Z" transform="translate(-1750.853 3989.034)" opacity="0.1"/>
      <path id="Path_78100" data-name="Path 78100" d="M487,433c.461.232,7.29,4.309,9.876,4.25Z" transform="translate(-1742.834 3979.097)" opacity="0.1"/>
      <path id="Path_78101" data-name="Path 78101" d="M459.917,315.841s-1.207,3.962-1.667,3.962c-.361,0-6.421-4.907-8.949-6.97l.11-.092a5.42,5.42,0,0,1,1.147-2.693C451.476,309.135,459.917,315.841,459.917,315.841Z" transform="translate(-1715.287 4068.998)" opacity="0.1"/>
      <path id="Path_78102" data-name="Path 78102" d="M459.057,314.131s-1.2,3.962-1.664,3.962c-.364,0-6.423-4.907-8.952-6.97l.11-.092a5.435,5.435,0,0,1,1.15-2.693C450.619,307.425,459.057,314.131,459.057,314.131Z" transform="translate(-1714.659 4070.247)" fill="#fff"/>
      <g id="Group_22154" data-name="Group 22154" transform="translate(-1271.861 4358.284)" opacity="0.15">
        <path id="Path_78103" data-name="Path 78103" d="M427.49,282.54h0c.808,1.845,3.033,2.739,4.323,4.209C431.045,284.942,428.8,284.056,427.49,282.54Z" transform="translate(-427.49 -269.249)"/>
        <path id="Path_78104" data-name="Path 78104" d="M448.459,294.1a1.936,1.936,0,0,1-1.767.9,5.155,5.155,0,0,1-1.772-.452,3.445,3.445,0,0,1,.458.975,5.628,5.628,0,0,0,2,.539,1.916,1.916,0,0,0,1.767-.9c.514-.983-.022-1.823-.649-2.618A1.71,1.71,0,0,1,448.459,294.1Z" transform="translate(-440.226 -276.556)"/>
        <path id="Path_78105" data-name="Path 78105" d="M462.989,237.232a9.232,9.232,0,0,0-.711-1.411,8.81,8.81,0,0,1-.294-1.153,3.571,3.571,0,0,0-.827-1.479,3.423,3.423,0,0,1,.137.407,9.273,9.273,0,0,0,.3,1.158,9.24,9.24,0,0,1,.711,1.411,1.462,1.462,0,0,1-1.077,1.686c-1,.218-2.133-.644-2.989-.089a2.151,2.151,0,0,0-.716,1.659q-.18,1.616-.366,3.213a3.85,3.85,0,0,1-.237,1.1,2.774,2.774,0,0,1-2.642,1.409,1.586,1.586,0,0,1-1.137-.377,7.513,7.513,0,0,0-.493-.625c-1.347-1.131-1.756,1.635-1.4,2.424a4.881,4.881,0,0,0,.657.988c-.3-.889.119-3.447,1.433-2.351a6.951,6.951,0,0,1,.49.625,1.6,1.6,0,0,0,1.139.377,2.774,2.774,0,0,0,2.642-1.409,3.851,3.851,0,0,0,.237-1.107q.183-1.616.366-3.21a2.158,2.158,0,0,1,.714-1.659c.859-.555,2,.307,2.992.086A1.46,1.46,0,0,0,462.989,237.232Z" transform="translate(-444.762 -233.19)"/>
      </g>
      <path id="Path_78106" data-name="Path 78106" d="M672.083,260.486a2.082,2.082,0,0,1-.865-.022,4.848,4.848,0,0,1-2.769-1.654,1.734,1.734,0,0,1-.461-1.686c.189-.455.684-.741.808-1.215a1.8,1.8,0,0,0-.046-.87l-.291-1.328c-.084-.377-.229-.821-.6-.91s-.687.218-.98.45a3.068,3.068,0,0,1-2.963.487c-.862-.469-.622-2.025-.762-2.868a.5.5,0,0,0-.188-.377.768.768,0,0,0-.393-.03,1.127,1.127,0,0,1-.975-.865,7.648,7.648,0,0,1-.154-1.387,1.554,1.554,0,0,0-.622-1.2,1.937,1.937,0,0,0-1.015-.175l-2,.022c-.493,0-1.077-.032-1.347-.442a1.342,1.342,0,0,1,.213-1.409,2.788,2.788,0,0,0,.665-1.347,2.533,2.533,0,0,0-.582-1.39,2.493,2.493,0,0,1-.339-.77l-.574-.035a1.55,1.55,0,0,0,.269,1.438,2.57,2.57,0,0,1,.582,1.387,2.859,2.859,0,0,1-.665,1.347,1.319,1.319,0,0,0-.21,1.409,1.505,1.505,0,0,0,1.347.444l2-.024a1.933,1.933,0,0,1,1.015.178,1.546,1.546,0,0,1,.622,1.2,7.446,7.446,0,0,0,.156,1.387,1.115,1.115,0,0,0,.975.862.789.789,0,0,1,.391.03.507.507,0,0,1,.189.38c.14.84-.119,2.4.762,2.868a3.056,3.056,0,0,0,2.962-.487c.294-.232.619-.539.983-.452s.52.539.6.91l.294,1.33a1.8,1.8,0,0,1,.043.87c-.135.471-.633.759-.821,1.212a1.739,1.739,0,0,0,.461,1.686,4.848,4.848,0,0,0,2.787,1.654,2.082,2.082,0,0,0,.865.022,2.031,2.031,0,0,0,1.12-.851A1.5,1.5,0,0,1,672.083,260.486Z" transform="translate(-1866.09 4119.044)" opacity="0.1"/>
      <path id="Path_78109" data-name="Path 78109" d="M263.532,635.818c0,.339-.04.614-.086.614s-.086-.269-.086-.614.048-.178.094-.178S263.532,635.479,263.532,635.818Z" transform="translate(-1579.424 3831.06)" fill="#ffd037"/>
      <path id="Path_78110" data-name="Path 78110" d="M264.165,637.284c-.3.161-.558.269-.579.218s.2-.2.5-.369.18-.043.2,0S264.464,637.12,264.165,637.284Z" transform="translate(-1579.588 3830.001)" fill="#ffd037"/>
      <path id="Path_78113" data-name="Path 78113" d="M239.35,635.818c0,.339.038.614.083.614s.086-.269.086-.614-.048-.178-.094-.178S239.35,635.479,239.35,635.818Z" transform="translate(-1561.88 3831.06)" fill="#ffd037"/>
      <path id="Path_78114" data-name="Path 78114" d="M237.109,637.284c.3.161.557.269.582.218s-.2-.2-.5-.369-.18-.043-.2,0S236.81,637.12,237.109,637.284Z" transform="translate(-1560.11 3830.001)" fill="#ffd037"/>
    </g>
  </g>
</svg>
