<svg xmlns="http://www.w3.org/2000/svg" width="261.441" height="204" viewBox="0 0 261.441 204">
  <g id="Group_22577" data-name="Group 22577" transform="translate(-245 -1951)">
    <rect id="Rectangle_18982" data-name="Rectangle 18982" width="204" height="204" rx="102" transform="translate(245 1951)" fill="#ed1c26" opacity="0.04"/>
    <g id="Group_22107" data-name="Group 22107" transform="translate(246 1939.26)">
      <ellipse id="Ellipse_485" data-name="Ellipse 485" cx="51.891" cy="3.941" rx="51.891" ry="3.941" transform="translate(0 190.481)" fill="#ed1c24" opacity="0.1"/>
      <path id="Path_16954" data-name="Path 16954" d="M324.272,240.063c9.031-3.841,24.256,4.434,27.243,1.492s5.361-5.745,4.063-7.172c-1.577-1.734-1.432-3.555-.483-5.387,2.426-4.685-1.05-9.67-4.56-13.815a7.774,7.774,0,0,0-6.488-2.723l-6.5.464a7.787,7.787,0,0,0-6.914,5.566h0c-1.553,2.111-2.383,4.217-1.86,6.312-2.326,1.589-2.716,3.508-1.671,5.67a3.26,3.26,0,0,1-.04,3.976,18.355,18.355,0,0,0-2.729,5.421Z" transform="translate(-284.608 -182.696)"/>
      <path id="Path_16955" data-name="Path 16955" d="M588.726,626.586H404.671a6.171,6.171,0,0,1-6.171-6.172h0a831.9,831.9,0,0,1,196.4,0h0A6.171,6.171,0,0,1,588.726,626.586Z" transform="translate(-334.457 -452.778)" fill="#2f2e41"/>
      <path id="Path_16956" data-name="Path 16956" d="M594.9,365.429l-196.4-.363,22.762-38.3.109-.182V242.178a7.8,7.8,0,0,1,7.8-7.8H563.137a7.8,7.8,0,0,1,7.8,7.8v84.988Z" transform="translate(-334.457 -197.43)"/>
      <path id="Path_16957" data-name="Path 16957" d="M486.154,250.957a2.544,2.544,0,0,0-2.541,2.541V330.46A2.544,2.544,0,0,0,486.154,333H621.563a2.544,2.544,0,0,0,2.541-2.541V253.5a2.544,2.544,0,0,0-2.541-2.541Z" transform="translate(-391.617 -208.565)" fill="#fff"/>
      <path id="Path_16958" data-name="Path 16958" d="M476.509,531.718a1.092,1.092,0,0,0-.989.634L468.506,547.6a1.089,1.089,0,0,0,.989,1.544H616.988a1.089,1.089,0,0,0,.974-1.576l-7.624-15.247a1.084,1.084,0,0,0-.974-.6Z" transform="translate(-381.404 -397.118)" fill="#2f2e41"/>
      <circle id="Ellipse_486" data-name="Ellipse 486" cx="1.634" cy="1.634" r="1.634" transform="translate(160.064 37.854)" fill="#fff"/>
      <path id="Path_16959" data-name="Path 16959" d="M645.875,593.619a1.091,1.091,0,0,0-1.052.806l-1.759,6.534a1.089,1.089,0,0,0,1.052,1.372h33.458a1.089,1.089,0,0,0,1.029-1.445l-2.262-6.535a1.09,1.09,0,0,0-1.029-.733Z" transform="translate(-498.676 -438.688)" fill="#2f2e41"/>
      <path id="Path_16960" data-name="Path 16960" d="M413.982,337.135v1.452H264.306l.113-.181v-1.271Z" transform="translate(-177.501 -209.25)" fill="#2f2e41"/>
      <circle id="Ellipse_489" data-name="Ellipse 489" cx="7.894" cy="7.894" r="7.894" transform="translate(118.283 74.523)" fill="#e6e6e6"/>
      <path id="Path_16964" data-name="Path 16964" d="M640.513,356.805a1.316,1.316,0,0,0,0,2.631h62.026a1.316,1.316,0,0,0,0-2.631Z" transform="translate(-496.103 -279.651)" fill="#e6e6e6"/>
      <path id="Path_16965" data-name="Path 16965" d="M640.513,380.842a1.316,1.316,0,0,0,0,2.631H667.2a1.316,1.316,0,0,0,0-2.631Z" transform="translate(-496.103 -295.793)" fill="#e6e6e6"/>
      <path id="Path_16966" data-name="Path 16966" d="M426.963,359.4l-19.345,10.285-.245-8.571a57.291,57.291,0,0,0,17.876-5.877l2.023-5a3.389,3.389,0,0,1,5.759-.879h0a3.389,3.389,0,0,1-.3,4.621Z" transform="translate(-340.416 -273.818)" fill="#ffb8b8"/>
      <path id="Path_16967" data-name="Path 16967" d="M322.824,536.746h0a3.8,3.8,0,0,1,.483-3.075l4.25-6.522a7.426,7.426,0,0,1,9.634-2.542h0c-1.786,3.04-1.537,5.707.617,8.025a38.634,38.634,0,0,0-9.175,6.255,3.8,3.8,0,0,1-5.808-2.141Z" transform="translate(-283.545 -391.784)" fill="#2f2e41"/>
      <path id="Path_16968" data-name="Path 16968" d="M396.8,478.882h0a7.292,7.292,0,0,1-6.2,3.54l-28.231.214-1.224-7.1,12.489-3.673-10.53-8.081,11.509-13.468,20.9,19.484a7.292,7.292,0,0,1,1.281,9.086Z" transform="translate(-309.371 -342.448)" fill="#2f2e41"/>
      <path id="Path_16969" data-name="Path 16969" d="M325.7,487.39h-6.612c-5.936-40.691-11.979-81.5,5.877-96.726l21.059,3.428-2.694,17.876-11.754,13.468Z" transform="translate(-277.106 -302.389)" fill="#2f2e41"/>
      <path id="Path_16970" data-name="Path 16970" d="M341.283,689.324h0a3.8,3.8,0,0,1-3.075-.482l-7.179-.965a7.426,7.426,0,0,1-2.542-9.634h0c3.04,1.786,5.707,1.537,8.025-.617,1.638,3.306,4.336,3.1,6.912,5.89a3.8,3.8,0,0,1-2.14,5.809Z" transform="translate(-286.88 -495.105)" fill="#2f2e41"/>
      <path id="Path_16971" data-name="Path 16971" d="M374.135,273.351l-12.244-2.939c2.034-4.162,2.2-8.794,1.224-13.713l8.326-.245A63.938,63.938,0,0,0,374.135,273.351Z" transform="translate(-309.872 -212.257)" fill="#ffb8b8"/>
      <path id="Path_16972" data-name="Path 16972" d="M362.54,333.366c-8.913,6.074-15.211.208-20.017-8.842.668-5.538-.413-12.165-2.416-19.366a13.182,13.182,0,0,1,8.048-15.9h0l10.53,4.408c8.941,7.288,10.7,15.182,7.346,23.508Z" transform="translate(-294.912 -234.29)" fill="#ed1c24"/>
      <path id="Path_16973" data-name="Path 16973" d="M286.39,306.012l-9.8,5.142,17.386,10.285,2.419,5.967a3.165,3.165,0,0,1-1.9,4.181h0a3.165,3.165,0,0,1-4.191-2.806l-.245-4.159-22.1-7.292a5.167,5.167,0,0,1-3.242-3.157h0a5.167,5.167,0,0,1,1.939-6.011l17.769-12.191Z" transform="translate(-244.411 -238.796)" fill="#ffb8b8"/>
      <path id="Path_16974" data-name="Path 16974" d="M334.106,301.7c-4.085-1.79-7.8.154-12.489,1.714l-.735-12.978c4.656-2.482,9.095-3.151,13.223-1.224Z" transform="translate(-282.331 -233.51)" fill="#ed1c24"/>
      <circle id="Ellipse_490" data-name="Ellipse 490" cx="7.817" cy="7.817" r="7.817" transform="translate(48.844 34.991)" fill="#ffb8b8"/>
      <path id="Path_16975" data-name="Path 16975" d="M368.906,234.88c-7.74.758-13.637-.508-17.406-4.112v-2.9h16.75Z" transform="translate(-302.893 -193.058)"/>
    </g>
    <g id="Group_22169" data-name="Group 22169" transform="translate(71 -270)">
      <g id="Rectangle_18904" data-name="Rectangle 18904" transform="translate(287 2278)" fill="#eb0e15" stroke="#eb0e15" stroke-width="1">
        <rect width="105" height="35" rx="4" stroke="none"/>
        <rect x="0.5" y="0.5" width="104" height="34" rx="3.5" fill="none"/>
      </g>
      <text id="Register" transform="translate(340 2301)" fill="#fff" font-size="14" font-family="Lato-Regular, Lato"><tspan x="-31" y="0">REGISTER</tspan></text>
    </g>
  </g>
</svg>
