<svg xmlns="http://www.w3.org/2000/svg" width="215" height="208.623" viewBox="0 0 215 208.623">
  <g id="Group_22579" data-name="Group 22579" transform="translate(-823 -1951)">
    <rect id="Rectangle_18983" data-name="Rectangle 18983" width="204" height="204" rx="102" transform="translate(834 1951)" fill="#ed1c26" opacity="0.04"/>
    <g id="Group_22153" data-name="Group 22153" transform="translate(817.627 1957)">
      <ellipse id="Ellipse_536" data-name="Ellipse 536" cx="34.391" cy="9.941" rx="34.391" ry="9.941" transform="translate(5.373 182.741)" fill="#ed1c24" opacity="0.03"/>
      <path id="Path_2389" data-name="Path 2389" d="M611.257,129.462l-.949-.319,8.708-25.992a15.865,15.865,0,0,0-10-20.083h0l-55.07-18.446a15.865,15.865,0,0,0-20.083,10h0l-47.768,142.6a15.865,15.865,0,0,0,10,20.083h0l55.068,18.447a15.865,15.865,0,0,0,20.082-10h0l32.863-98.1.949.318Z" transform="translate(-408.11 -63.795)"/>
      <path id="Path_2390" data-name="Path 2390" d="M621.474,99.883l-7.188-2.408a5.629,5.629,0,0,1-7.4,5.7L575.333,92.605a5.629,5.629,0,0,1-2.477-9.008l-6.714-2.249a11.848,11.848,0,0,0-15,7.471l-47.7,142.387a11.848,11.848,0,0,0,7.471,15h0l55.334,18.536a11.848,11.848,0,0,0,15-7.471h0l47.7-142.387a11.848,11.848,0,0,0-7.471-15Z" transform="translate(-421.277 -76.493)" fill="#fff"/>
      <g id="Group_161" data-name="Group 161" transform="translate(25.374 56.771)">
        <circle id="Ellipse_476" data-name="Ellipse 476" cx="7.965" cy="7.965" r="7.965" transform="translate(15.204 4.628)" fill="#9f616a"/>
        <path id="Path_2387" data-name="Path 2387" d="M337.912,304.247a9.888,9.888,0,0,1,1.875.259,4.746,4.746,0,0,0,5.072-3.538,2.716,2.716,0,0,1,.259-.845,1.674,1.674,0,0,1,1.78-.542,13.762,13.762,0,0,0,1.923.468,2.944,2.944,0,0,0,2.541-1.438,4.877,4.877,0,0,0,.624-2.945l-.489.513a2.482,2.482,0,0,1-.221-1.349,1.565,1.565,0,0,0-1.483.379c-.431.046-.106-.8-.425-1.091a.74.74,0,0,0-.521-.1,4.151,4.151,0,0,1-2.38-1.256,10.114,10.114,0,0,0-4.272-1.949,5.629,5.629,0,0,0-3.117.15,6.659,6.659,0,0,0-2.1,1.493,12.84,12.84,0,0,0-3.537,5.247,8.834,8.834,0,0,0-.042,5.122c.258.869,1.034,3.847,2.171,3.916C336.992,306.832,336.135,304.353,337.912,304.247Z" transform="translate(-319.347 -290.668)"/>
        <path id="Path_111" data-name="Path 111" d="M291.109,484.041a3.663,3.663,0,0,0,.539-5.591l1.421-31.721-7.235.812.42,31.029a3.683,3.683,0,0,0,4.855,5.473Z" transform="translate(-283.574 -407.676)" fill="#a0616a"/>
        <path id="Path_112" data-name="Path 112" d="M361.191,762.835l4.118.724,4.07-15.54-5.4-1.068Z" transform="translate(-340.457 -632.773)" fill="#a0616a"/>
        <path id="Path_113" data-name="Path 113" d="M367.8,812.371l-12.943-2.286.883-5,7.942,1.4a5.078,5.078,0,0,1,4.117,5.884Z" transform="translate(-335.709 -676.359)" fill="#2f2e41"/>
        <path id="Path_114" data-name="Path 114" d="M316.022,770.347H320.2l1.989-16.126h-6.17Z" transform="translate(-306.59 -638.224)" fill="#a0616a"/>
        <path id="Path_115" data-name="Path 115" d="M325.568,818.968h-13.14v-5.077h8.063A5.077,5.077,0,0,1,325.568,818.968Z" transform="translate(-303.896 -682.963)" fill="#2f2e41"/>
        <path id="Path_116" data-name="Path 116" d="M330.825,632.564a1.618,1.618,0,0,1-.2-.011l-4.921-.4a1.664,1.664,0,0,1-1.459-1.847q0-.042.012-.083l4.887-24.1-3.07-16.19a.555.555,0,0,0-1.1.055l-4.521,41.138a1.679,1.679,0,0,1-1.777,1.513l-4.636-.173a1.667,1.667,0,0,1-1.547-1.579l.37-49.711,24.036-3,1.679,25.932-.007.027-6.136,27.171A1.666,1.666,0,0,1,330.825,632.564Z" transform="translate(-303.949 -506.221)"/>
        <path id="Path_117" data-name="Path 117" d="M313.134,434.278a6.858,6.858,0,0,1-3.7-1.059c-4.057-2.536-8.666-1.528-11.052-.7a1.664,1.664,0,0,1-1.439-.164,1.641,1.641,0,0,1-.758-1.211l-4.338-38.75a13.577,13.577,0,0,1,9.3-14.514h0q.345-.108.7-.2a13.494,13.494,0,0,1,11.244,1.952,13.711,13.711,0,0,1,5.855,10.009l3.653,39.009a1.639,1.639,0,0,1-.522,1.367C320.794,431.2,317.078,434.277,313.134,434.278Z" transform="translate(-288.397 -355.549)" fill="#ed1c24"/>
        <path id="Path_118" data-name="Path 118" d="M289.857,417.643l-9.789-1.076a1.95,1.95,0,0,1-1.673-2.433l2.492-9.5a5.415,5.415,0,0,1,10.768,1.154q0,.031-.007.061l.37,9.779a1.95,1.95,0,0,1-2.162,2.011Z" transform="translate(-278.331 -372.491)" fill="#ed1c24"/>
        <path id="Path_119" data-name="Path 119" d="M385.953,478.719a3.663,3.663,0,0,0-.138-5.616L383.4,441.442l-7.089,1.6,4.162,30.833a3.683,3.683,0,0,0,5.478,4.848Z" transform="translate(-351.795 -403.713)" fill="#a0616a"/>
        <path id="Path_120" data-name="Path 120" d="M363.588,411.308a1.948,1.948,0,0,1-.62-1.5l.37-9.779a5.415,5.415,0,1,1,10.762-1.215l2.492,9.5a1.95,1.95,0,0,1-1.673,2.433l-9.789,1.076a1.948,1.948,0,0,1-1.541-.511Z" transform="translate(-341.788 -368.146)" fill="#ed1c24"/>
      </g>
      <g id="Group_22580" data-name="Group 22580" transform="translate(-3 8)" opacity="0.6">
        <path id="Path_2391" data-name="Path 2391" d="M742.376,238.274l-59.051-19.782a1.155,1.155,0,0,1-.727-1.46l4.907-14.649a1.155,1.155,0,0,1,1.46-.727l59.052,19.782a1.155,1.155,0,0,1,.727,1.46l-4.907,14.648a1.155,1.155,0,0,1-1.46.727Zm-53.558-36.179a.693.693,0,0,0-.876.436l-4.907,14.648a.693.693,0,0,0,.436.876l59.052,19.782a.693.693,0,0,0,.876-.436l4.908-14.647a.693.693,0,0,0-.436-.876Z" transform="translate(-556.018 -167.114)"/>
        <rect id="Rectangle_19080" data-name="Rectangle 19080" width="19" height="3" rx="1.5" transform="translate(134.542 39.016) rotate(19)" opacity="0.1"/>
        <rect id="Rectangle_19081" data-name="Rectangle 19081" width="39" height="3" rx="1.5" transform="translate(132.542 45.016) rotate(19)" opacity="0.1"/>
      </g>
      <g id="Group_22581" data-name="Group 22581" transform="translate(-11 32)" opacity="0.6">
        <path id="Path_2391-2" data-name="Path 2391" d="M742.376,238.274l-59.051-19.782a1.155,1.155,0,0,1-.727-1.46l4.907-14.649a1.155,1.155,0,0,1,1.46-.727l59.052,19.782a1.155,1.155,0,0,1,.727,1.46l-4.907,14.648a1.155,1.155,0,0,1-1.46.727Zm-53.558-36.179a.693.693,0,0,0-.876.436l-4.907,14.648a.693.693,0,0,0,.436.876l59.052,19.782a.693.693,0,0,0,.876-.436l4.908-14.647a.693.693,0,0,0-.436-.876Z" transform="translate(-556.018 -167.114)"/>
        <rect id="Rectangle_19080-2" data-name="Rectangle 19080" width="19" height="3" rx="1.5" transform="translate(134.542 39.016) rotate(19)" opacity="0.1"/>
        <rect id="Rectangle_19081-2" data-name="Rectangle 19081" width="39" height="3" rx="1.5" transform="translate(132.542 45.016) rotate(19)" opacity="0.1"/>
      </g>
      <g id="Group_22582" data-name="Group 22582" transform="translate(-3 8)">
        <rect id="Rectangle_19082" data-name="Rectangle 19082" width="64" height="13" rx="2" transform="matrix(0.951, 0.309, -0.309, 0.951, 115.391, 86)" fill="#ed1c24"/>
        <text id="Login" transform="matrix(0.946, 0.326, -0.326, 0.946, 132.693, 100.633)" fill="#fff" font-size="6" font-family="Lato-Bold, Lato" font-weight="700"><tspan x="0" y="0">LOGIN</tspan></text>
      </g>
    </g>
  </g>
</svg>
