<svg xmlns="http://www.w3.org/2000/svg" width="40.447" height="30.127" viewBox="0 0 40.447 30.127">
  <g id="Group_22434" data-name="Group 22434" transform="translate(-20.553 -18.105)">
    <path id="Subtraction_37" data-name="Subtraction 37" d="M23399.318,15464.232h-28.082a2.317,2.317,0,0,1-2.238-2.238v-16.849a2.319,2.319,0,0,1,2.238-2.232h20.711c0,.064,0,.13,0,.193a8.325,8.325,0,0,0,.146,1.569h-20.855c-.172,0-.277.054-.312.158a.444.444,0,0,0-.158.312v3.119h22.924a8.584,8.584,0,0,0,2.928,2.434,8.4,8.4,0,0,0,3.828.909,8.848,8.848,0,0,0,1.105-.071v10.458a2.31,2.31,0,0,1-2.232,2.238Zm-28.553-10.662h0v8.424a.444.444,0,0,0,.158.312c.033.105.139.159.313.159h28.082c.172,0,.277-.054.311-.159a.455.455,0,0,0,.152-.312v-8.424Zm12.432,7.126h-5.3v-1.821h5.3v1.82Zm-7.074,0h-3.584v-1.821h3.584v1.82Z" transform="translate(-23348.445 -15416)" fill="#ed1c26"/>
    <g id="Group_22433" data-name="Group 22433" transform="translate(-1021 -1387.895)">
      <rect id="Rectangle_19044" data-name="Rectangle 19044" width="17" height="17" rx="8.5" transform="translate(1064.5 1406.5)" fill="none" stroke="#ed1c26" stroke-width="1"/>
      <path id="Icon_ionic-ios-refresh" data-name="Icon ionic-ios-refresh" d="M14.312,9.079a.4.4,0,0,0-.4.362A4.317,4.317,0,1,1,9.5,4.79a.1.1,0,0,1,.109.106V6.234a.426.426,0,0,0,.654.359L12.823,4.8a.425.425,0,0,0,0-.721L10.268,2.317a.426.426,0,0,0-.654.359V3.891A.1.1,0,0,1,9.51,4a5.084,5.084,0,1,0,5.2,5.51.4.4,0,0,0-.4-.428Z" transform="translate(1063.395 1406.124)" fill="#ed1c26"/>
    </g>
  </g>
</svg>
